<svg width="64" height="64" viewBox="0 0 64 64" fill="none" xmlns="http://www.w3.org/2000/svg">
<path d="M0 10C0 4.47715 4.0934 0 9.14286 0H54.8571C59.9066 0 64 4.47715 64 10V54C64 59.5228 59.9066 64 54.8571 64H9.14286C4.0934 64 0 59.5228 0 54V10Z" fill="url(#paint0_linear)"/>
<path d="M40.816 54H10V10H54V29.366C52.756 28.774 51.414 28.362 50 28.16V22H14V50H36.52C37.652 51.62 39.12 52.98 40.816 54ZM45.33 36.662C46.134 36.25 47.034 36 48 36C50.91 36 53.34 38.084 53.882 40.836L57.802 40.04C56.89 35.458 52.852 32 48 32C46.086 32 44.31 32.556 42.792 33.49L40 30L38 40H48L45.33 36.662ZM56 54L53.208 50.51C51.69 51.444 49.914 52 48 52C43.148 52 39.11 48.542 38.198 43.96L42.118 43.164C42.66 45.916 45.09 48 48 48C48.966 48 49.866 47.75 50.67 47.338L48 44H58L56 54Z" fill="white"/>
<defs>
<linearGradient id="paint0_linear" x1="32" y1="0" x2="32" y2="64" gradientUnits="userSpaceOnUse">
<stop stop-color="#FF8181"/>
<stop offset="1" stop-color="#EA6CFF"/>
</linearGradient>
</defs>
</svg>
