<svg width="326" height="116" viewBox="0 0 326 116" fill="none" xmlns="http://www.w3.org/2000/svg">
<path d="M43.5 65.1862C22.7 60.3862 5.83333 79.1862 0 89.1862V115.686H323.5V32.1862C318 34.0195 305.5 34.6862 299.5 22.6862C292 7.68619 285.5 -3.81381 266.5 1.18619C247.5 6.18619 247 58.1862 221 65.1862C195 72.1862 191 31.1862 165 32.1862C139 33.1862 146 65.1862 113.5 77.6862C81 90.1862 69.5 71.1862 43.5 65.1862Z" fill="#F7FBFF"/>
<path fill-rule="evenodd" clip-rule="evenodd" d="M275.652 0.000424393C277.714 -0.0114527 279.611 0.226148 281.368 0.690328L280.857 2.62398C279.283 2.20821 277.563 1.98945 275.664 2.00039L275.652 0.000424393ZM267.246 1.21912C268.194 0.969637 269.113 0.75976 270.006 0.588288L270.384 2.55241C269.537 2.71486 268.662 2.91454 267.754 3.15327C267.004 3.35079 266.283 3.62923 265.587 3.98351L264.679 2.20108C265.497 1.78509 266.351 1.45448 267.246 1.21912ZM286.674 3.00367C288.284 4.01917 289.741 5.2604 291.085 6.67903L289.633 8.05473C288.384 6.73684 287.055 5.60822 285.607 4.6953L286.674 3.00367ZM257.117 9.56381C258.132 8.03232 259.213 6.64491 260.379 5.44878L261.811 6.84518C260.751 7.93192 259.747 9.21564 258.784 10.6687L257.117 9.56381ZM294.611 11.1067C295.631 12.5967 296.6 14.1945 297.543 15.871L295.8 16.8518C294.877 15.2105 293.939 13.6652 292.961 12.2363L294.611 11.1067ZM252.283 18.6809C253.002 17.0692 253.74 15.5156 254.506 14.0438L256.28 14.9671C255.537 16.3951 254.816 17.9113 254.109 19.4964L252.283 18.6809ZM300.15 20.7709C300.564 21.5823 300.978 22.4059 301.394 23.239C301.743 23.9358 302.113 24.586 302.502 25.1925L300.819 26.2724C300.39 25.6044 299.985 24.8922 299.606 24.1334C299.19 23.3028 298.779 22.4843 298.368 21.6794L300.15 20.7709ZM248.39 28.1243C249.02 26.5239 249.648 24.9394 250.281 23.3893L252.132 24.1455C251.504 25.6834 250.88 27.2582 250.251 28.8564L248.39 28.1243ZM305.336 28.6175C306.471 29.6777 307.686 30.516 308.942 31.1703L308.018 32.9439C306.609 32.2097 305.243 31.2681 303.97 30.0789L305.336 28.6175ZM165.962 32.1869C166.838 32.1532 167.693 32.1653 168.526 32.2204L168.394 34.216C167.631 34.1656 166.847 34.1544 166.038 34.1855C165.179 34.2185 164.36 34.2864 163.578 34.3868L163.323 32.403C164.167 32.2947 165.046 32.2221 165.962 32.1869ZM325.085 32.3749C325.345 32.5629 325.5 32.8647 325.5 33.1862V35.7956H323.5V34.5175C323.155 34.6044 322.795 34.6856 322.421 34.7596L322.033 32.7977C322.838 32.6383 323.563 32.4445 324.184 32.2375C324.489 32.1359 324.824 32.187 325.085 32.3749ZM313.111 32.6964C314.622 33.0455 316.127 33.1986 317.559 33.2114L317.541 35.2113C315.981 35.1974 314.329 35.0306 312.661 34.645L313.111 32.6964ZM244.632 37.5489C245.279 35.9914 245.909 34.4214 246.531 32.8522L248.39 33.5886C247.767 35.1632 247.132 36.7443 246.48 38.3158L244.632 37.5489ZM173.58 33.1308C175.246 33.6315 176.811 34.3111 178.292 35.1311L177.323 36.8808C175.956 36.1236 174.522 35.5022 173.005 35.0461L173.58 33.1308ZM153.416 36.1329C154.834 35.1334 156.395 34.2934 158.145 33.6472L158.838 35.5234C157.257 36.1071 155.849 36.8644 154.569 37.7673L153.416 36.1329ZM182.501 37.9742C183.802 39.0133 185.04 40.1505 186.229 41.3497L184.809 42.7583C183.662 41.6019 182.482 40.5186 181.253 39.5369L182.501 37.9742ZM146.253 43.8203C147.251 42.3496 148.305 40.9564 149.459 39.6797L150.943 41.0211C149.867 42.2114 148.869 43.5266 147.908 44.9434L146.253 43.8203ZM240.453 46.7243C241.206 45.2515 241.929 43.7342 242.629 42.1871L244.451 43.0111C243.741 44.5819 243.004 46.1289 242.233 47.6355L240.453 46.7243ZM189.603 45.0199C190.68 46.2677 191.732 47.5469 192.768 48.8241L191.215 50.0844C190.183 48.8122 189.146 47.5515 188.089 46.3269L189.603 45.0199ZM141.8 51.1612C142.375 50.1592 142.945 49.1671 143.514 48.2008L145.237 49.2153C144.674 50.1728 144.113 51.1488 143.541 52.1454C143.26 52.6351 142.976 53.1297 142.687 53.6296L140.955 52.6294C141.239 52.1389 141.52 51.6489 141.8 51.1612ZM235.252 55.2438C236.224 53.946 237.146 52.5604 238.025 51.1039L239.738 52.1378C238.829 53.6423 237.871 55.0842 236.853 56.4427L235.252 55.2438ZM195.863 52.639C196.911 53.9158 197.959 55.1601 199.024 56.3452L197.536 57.6817C196.443 56.4656 195.375 55.196 194.317 53.9081L195.863 52.639ZM135.564 61.1716C136.562 59.7878 137.485 58.3869 138.359 56.9847L140.056 58.043C139.164 59.4737 138.216 60.9131 137.186 62.3412L135.564 61.1716ZM228.304 62.15C229.623 61.2379 230.865 60.1797 232.039 58.9955L233.459 60.4037C232.208 61.6653 230.873 62.8052 229.441 63.795L228.304 62.15ZM202.396 59.7978C203.597 60.9073 204.83 61.9063 206.112 62.7618L205.002 64.4256C203.615 63.5002 202.3 62.432 201.039 61.2668L202.396 59.7978ZM31.1433 65.1363C32.903 64.7552 34.7124 64.5144 36.5653 64.4402L36.6453 66.4386C34.9137 66.5079 33.2192 66.7331 31.5666 67.091L31.1433 65.1363ZM221.74 65.2206C222.531 65.0077 223.296 64.7513 224.039 64.4541L224.782 66.3109C223.967 66.637 223.127 66.9183 222.26 67.1518C221.407 67.3815 220.574 67.5622 219.759 67.696L219.435 65.7225C220.18 65.6 220.948 65.4337 221.74 65.2206ZM42.0286 64.7121C42.9203 64.837 43.8192 65.0028 44.7249 65.2118C45.6041 65.4147 46.4669 65.6322 47.3144 65.8626L46.7896 67.7926C45.9663 67.5687 45.1285 67.3575 44.2751 67.1606C43.4263 66.9647 42.5848 66.8096 41.751 66.6927L42.0286 64.7121ZM210.26 64.9141C211.68 65.4443 213.177 65.7951 214.772 65.9294L214.605 67.9224C212.82 67.7721 211.145 67.3791 209.56 66.788L210.26 64.9141ZM128.98 68.6839C130.236 67.5259 131.388 66.3273 132.457 65.1011L133.964 66.4154C132.852 67.6919 131.649 68.943 130.336 70.154L128.98 68.6839ZM21.0069 69.0191C22.5831 68.1485 24.2242 67.3698 25.9242 66.7113L26.6465 68.5763C25.0374 69.1996 23.4778 69.9391 21.9738 70.7698L21.0069 69.0191ZM52.4055 67.4488C54.1146 68.0475 55.7643 68.6898 57.3674 69.3585L56.5976 71.2043C55.0243 70.5482 53.4111 69.9202 51.7443 69.3363L52.4055 67.4488ZM66.8628 73.7054L66.9754 73.7594L66.1104 75.5627L66.0047 75.512C64.4763 74.7788 62.938 74.0408 61.3687 73.314L62.2093 71.4992C63.7902 72.2315 65.3384 72.9741 66.8628 73.7054ZM120.941 74.5506C122.442 73.6957 123.833 72.7914 125.129 71.847L126.307 73.4632C124.951 74.4513 123.497 75.3963 121.93 76.2885L120.941 74.5506ZM12.2014 75.2672C13.5336 74.1003 14.9456 72.9717 16.431 71.9116L17.5928 73.5395C16.1657 74.558 14.8056 75.6449 13.5191 76.7717L12.2014 75.2672ZM71.7133 76.0003C73.3069 76.7332 74.8933 77.4315 76.4929 78.0742L75.7472 79.93C74.1079 79.2713 72.49 78.5589 70.8776 77.8174L71.7133 76.0003ZM114.141 77.7529C114.942 77.4449 115.717 77.1251 116.469 76.7943L117.275 78.625C116.494 78.9687 115.689 79.3004 114.859 79.6195C114.008 79.9469 113.171 80.253 112.346 80.5388L111.691 78.6492C112.494 78.3709 113.31 78.0724 114.141 77.7529ZM4.76041 83.0435C5.83322 81.7114 7.0196 80.3493 8.31085 78.9978L9.75695 80.3793C8.5064 81.6883 7.35711 83.0078 6.31807 84.298L4.76041 83.0435ZM81.3655 79.8194C82.9921 80.3235 84.6487 80.7518 86.3536 81.0838L85.9713 83.047C84.1879 82.6997 82.461 82.2527 80.7734 81.7297L81.3655 79.8194ZM101.684 81.2427C103.303 80.9774 104.983 80.6211 106.731 80.1632L107.238 82.098C105.432 82.5709 103.691 82.9406 102.007 83.2164L101.684 81.2427ZM91.4454 81.7578C93.0932 81.8728 94.7975 81.8922 96.5717 81.7997L96.6759 83.797C94.8201 83.8938 93.0344 83.8736 91.3062 83.7529L91.4454 81.7578ZM0.136221 89.6823C0.55909 88.9574 1.03711 88.1898 1.56752 87.3909L3.2337 88.4972C2.78011 89.1804 2.36835 89.8368 2 90.4584V92.3945H0V90.1862C0 90.0091 0.0470084 89.8353 0.136221 89.6823Z" fill="#E7F5FF"/>
</svg>
