<svg width="33" height="43" viewBox="0 0 33 43" fill="none" xmlns="http://www.w3.org/2000/svg">
<path d="M9.26918 36.7064L11.5412 43L18.4625 23.9292L10.4052 20.9937L3.48389 40.0433L9.26918 36.7064Z" fill="#146B7F"/>
<path d="M23.238 36.7064L29.0233 40.0433L22.102 20.9937L14.0446 23.9292L20.9659 43L23.238 36.7064Z" fill="#13ADB7"/>
<path d="M16.2536 29.6103C23.5733 29.6103 29.5072 23.6534 29.5072 16.3052C29.5072 8.95693 23.5733 3 16.2536 3C8.93383 3 3 8.95693 3 16.3052C3 23.6534 8.93383 29.6103 16.2536 29.6103Z" fill="#EEEEEE" stroke="#EFF4FF" stroke-width="5" stroke-miterlimit="10" stroke-linecap="round" stroke-linejoin="round"/>
<path d="M16.2536 4.45723L17.7052 5.74551L19.4513 4.90074L20.5031 6.52693L22.4175 6.18902L22.9856 8.04752L24.921 8.23759L24.9841 10.1806L26.7933 10.8775L26.3095 12.7782L27.8662 13.9398L26.9196 15.6294L28.0976 17.1711L26.7092 18.5438L27.4244 20.339L25.7415 21.2893L25.9518 23.2323L24.0585 23.6758L23.7429 25.5977L21.8075 25.5132L20.987 27.2872L19.1357 26.6959L17.8735 28.1531L16.2536 27.076L14.6337 28.1531L13.3714 26.6959L11.5202 27.2872L10.6997 25.5132L8.76425 25.5977L8.44869 23.6758L6.55532 23.2323L6.7657 21.2893L5.0827 20.339L5.79797 18.5438L4.43054 17.1711L5.5876 15.6294L4.64092 13.9398L6.19769 12.7782L5.71382 10.8775L7.52304 10.1806L7.58616 8.23759L9.5216 8.04752L10.0896 6.18902L12.004 6.52693L13.0559 4.90074L14.802 5.74551L16.2536 4.45723Z" fill="#F6F6F6" stroke="#EEEEEE" stroke-width="3" stroke-miterlimit="10" stroke-linecap="round" stroke-linejoin="round"/>
<path d="M25.5311 16.3052C25.5311 21.4583 21.3867 25.6188 16.2536 25.6188C11.1204 25.6188 6.97607 21.4583 6.97607 16.3052C6.97607 11.1521 11.1204 6.99155 16.2536 6.99155C21.3867 6.99155 25.5311 11.1521 25.5311 16.3052Z" fill="#333333"/>
<path d="M19.8828 19.6328H18.5078V22H16.1484V19.6328H11.2734V17.9531L16.2812 10.5781H18.5078V17.7578H19.8828V19.6328ZM16.1484 17.7578V15.8203C16.1484 15.4974 16.1615 15.0286 16.1875 14.4141C16.2135 13.7995 16.2344 13.4427 16.25 13.3438H16.1875C15.9948 13.7708 15.763 14.1875 15.4922 14.5938L13.3984 17.7578H16.1484Z" fill="white"/>
</svg>
