<svg width="71" height="64" viewBox="0 0 71 64" fill="none" xmlns="http://www.w3.org/2000/svg">
<rect width="71" height="64" rx="10" fill="#27AE60"/>
<path d="M52 8.52943V56.2365C51.9999 56.7043 51.9077 57.1676 51.7286 57.5997C51.5495 58.0319 51.287 58.4246 50.9561 58.7553C50.6253 59.086 50.2325 59.3483 49.8002 59.5272C49.368 59.7061 48.9047 59.7982 48.4369 59.798H25.5636C24.6188 59.7982 23.7126 59.423 23.0444 58.7552C22.3761 58.0873 22.0004 57.1813 22 56.2365V8.52943C22.0001 7.58439 22.3757 6.67811 23.0439 6.00991C23.7122 5.34172 24.6186 4.96634 25.5636 4.96634H48.4369C48.9048 4.96627 49.3682 5.05838 49.8005 5.23742C50.2328 5.41646 50.6257 5.67891 50.9565 6.00979C51.2874 6.34067 51.5499 6.73349 51.7289 7.16581C51.908 7.59814 52.0001 8.0615 52 8.52943V8.52943Z" fill="url(#paint0_linear)"/>
<path d="M49.718 7.35671H24.282V51.0412H49.718V7.35671Z" fill="#EFF4FF"/>
<path d="M40.1385 55.3916C40.1385 56.6637 38.7332 57.6947 37.0005 57.6947C35.2679 57.6947 33.8609 56.6637 33.8609 55.3916C33.8609 54.1195 35.2663 53.0885 36.9995 53.0885C38.7326 53.0885 40.1385 54.1195 40.1385 55.3916Z" fill="url(#paint1_linear)"/>
<path d="M26.4921 33.1322H26.3821V47.2032H26.4921V33.1322Z" fill="#4AAFFF"/>
<path d="M31.8269 33.1322H31.717V47.2032H31.8269V33.1322Z" fill="#4AAFFF"/>
<path d="M37.1613 33.1322H37.0513V47.2032H37.1613V33.1322Z" fill="#4AAFFF"/>
<path d="M42.4956 33.1322H42.3856V47.2032H42.4956V33.1322Z" fill="#4AAFFF"/>
<path d="M47.8305 33.1322H47.7205V47.2032H47.8305V33.1322Z" fill="#4AAFFF"/>
<path d="M26.4921 40.5497C26.4921 40.5497 28.6657 42.3802 30.7663 40.2124C32.8669 38.0446 35.2885 37.3202 37.4325 39.1459C39.5765 40.9716 40.4082 38.466 42.5506 36.4124C44.693 34.3588 44.6581 33.1903 47.8299 33.1903V46.2557H26.4921V40.5497Z" fill="url(#paint2_linear)"/>
<path d="M33.0969 31.96H31.7714V32.4723H33.0969V31.96Z" fill="#4AAFFF"/>
<path d="M28.1861 31.96H26.3821V32.4723H28.1861V31.96Z" fill="#4AAFFF"/>
<path d="M38.74 31.96H37.1063V32.4723H38.74V31.96Z" fill="#4AAFFF"/>
<path d="M44.0194 31.96H42.3856V32.4723H44.0194V31.96Z" fill="#4AAFFF"/>
<path d="M47.7755 31.96H46.1417V32.4723H47.7755V31.96Z" fill="#4AAFFF"/>
<path d="M46.8423 22.7078H39.7092V23.6098H46.8423V22.7078Z" fill="url(#paint3_linear)"/>
<path d="M46.257 26.4903H39.7092V27.3923H46.257V26.4903Z" fill="url(#paint4_linear)"/>
<path d="M45.3745 24.5991H39.7092V25.5011H45.3745V24.5991Z" fill="url(#paint5_linear)"/>
<path d="M33.3137 21.4203C33.3137 21.667 33.2405 21.9082 33.1035 22.1133C32.9664 22.3184 32.7716 22.4783 32.5437 22.5727C32.3158 22.6671 32.065 22.6918 31.8231 22.6436C31.5811 22.5955 31.3589 22.4767 31.1845 22.3023C31.01 22.1279 30.8912 21.9056 30.8431 21.6637C30.795 21.4217 30.8197 21.1709 30.9141 20.943C31.0085 20.7151 31.1684 20.5203 31.3735 20.3833C31.5786 20.2462 31.8197 20.1731 32.0664 20.1731C32.3972 20.1731 32.7145 20.3045 32.9484 20.5384C33.1823 20.7723 33.3137 21.0895 33.3137 21.4203V21.4203Z" fill="#4AAFFF"/>
<path d="M34.3167 25.4863V27.8602C33.6063 28.1816 32.8356 28.3478 32.0559 28.3478C31.2762 28.3478 30.5054 28.1816 29.795 27.8602V25.4863C29.795 24.8866 30.0332 24.3116 30.4572 23.8876C30.8812 23.4636 31.4563 23.2254 32.0559 23.2254C32.6555 23.2254 33.2305 23.4636 33.6545 23.8876C34.0785 24.3116 34.3167 24.8866 34.3167 25.4863V25.4863Z" fill="#4AAFFF"/>
<path d="M32.0559 28.4947C31.2547 28.4967 30.4626 28.3258 29.7337 27.9935C28.5648 27.4629 27.6128 26.548 27.0362 25.4011C26.4596 24.2541 26.2932 22.9443 26.5646 21.6896C26.8361 20.435 27.529 19.3111 28.5281 18.505C29.5272 17.6989 30.7722 17.2593 32.0559 17.2593C33.3396 17.2593 34.5846 17.6989 35.5837 18.505C36.5827 19.3111 37.2757 20.435 37.5471 21.6896C37.8185 22.9443 37.6521 24.2541 37.0755 25.4011C36.4989 26.548 35.547 27.4629 34.378 27.9935C33.6491 28.3257 32.857 28.4966 32.0559 28.4947V28.4947ZM32.0559 17.5538C30.6443 17.5538 29.2906 18.1145 28.2925 19.1126C27.2944 20.1107 26.7337 21.4644 26.7337 22.8759C26.7337 24.2875 27.2944 25.6412 28.2925 26.6393C29.2906 27.6374 30.6443 28.1981 32.0559 28.1981C32.8145 28.1995 33.5646 28.0372 34.2548 27.7222C35.362 27.2194 36.2637 26.3527 36.8099 25.2662C37.356 24.1797 37.5137 22.939 37.2567 21.7504C36.9997 20.5618 36.3436 19.4971 35.3973 18.7333C34.4511 17.9695 33.2719 17.5527 32.0559 17.5522V17.5538Z" fill="url(#paint6_linear)"/>
<path d="M43.2025 20.5014C42.5312 20.5014 41.8749 20.3023 41.3167 19.9293C40.7585 19.5564 40.3234 19.0262 40.0665 18.406C39.8095 17.7857 39.7423 17.1032 39.8733 16.4448C40.0043 15.7863 40.3276 15.1815 40.8023 14.7067C41.277 14.232 41.8818 13.9087 42.5403 13.7778C43.1987 13.6468 43.8812 13.714 44.5015 13.9709C45.1218 14.2278 45.6519 14.6629 46.0249 15.2211C46.3979 15.7793 46.5969 16.4356 46.5969 17.107C46.596 18.0069 46.238 18.8697 45.6016 19.5061C44.9653 20.1425 44.1025 20.5004 43.2025 20.5014V20.5014ZM43.2025 14.3925C42.6656 14.3923 42.1407 14.5513 41.6941 14.8494C41.2476 15.1476 40.8995 15.5715 40.6939 16.0674C40.4883 16.5634 40.4344 17.1093 40.539 17.6359C40.6436 18.1625 40.9021 18.6463 41.2816 19.026C41.6612 19.4058 42.1449 19.6644 42.6715 19.7692C43.1981 19.874 43.7439 19.8204 44.24 19.6149C44.7361 19.4095 45.1601 19.0616 45.4584 18.6152C45.7567 18.1688 45.9159 17.6439 45.9159 17.107C45.9151 16.3875 45.629 15.6977 45.1203 15.1888C44.6117 14.68 43.922 14.3936 43.2025 14.3925V14.3925Z" fill="#FF6559"/>
<path d="M46.2569 13.1278C45.9814 13.1278 45.7121 13.0461 45.483 12.893C45.2539 12.74 45.0753 12.5224 44.9699 12.2679C44.8644 12.0133 44.8368 11.7332 44.8905 11.463C44.9442 11.1927 45.0768 10.9445 45.2716 10.7496C45.4664 10.5548 45.7146 10.422 45.9848 10.3682C46.255 10.3144 46.5352 10.3419 46.7897 10.4473C47.0443 10.5527 47.2619 10.7311 47.4151 10.9602C47.5682 11.1892 47.65 11.4585 47.6501 11.7341C47.6499 12.1035 47.503 12.4578 47.2418 12.7191C46.9806 12.9804 46.6264 13.1274 46.2569 13.1278ZM46.2569 10.6206C46.0366 10.6207 45.8213 10.6861 45.6381 10.8086C45.455 10.9311 45.3123 11.1051 45.228 11.3088C45.1438 11.5124 45.1219 11.7364 45.165 11.9524C45.208 12.1685 45.3142 12.367 45.4701 12.5227C45.626 12.6784 45.8245 12.7844 46.0407 12.8273C46.2568 12.8702 46.4808 12.848 46.6843 12.7636C46.8878 12.6792 47.0617 12.5363 47.1841 12.3531C47.3064 12.1698 47.3716 11.9544 47.3715 11.7341C47.3711 11.4387 47.2535 11.1555 47.0445 10.9468C46.8356 10.738 46.5523 10.6207 46.2569 10.6206V10.6206Z" fill="#FF6559"/>
<path d="M36.9159 10.3414H31.801V11.1572H36.9159V10.3414Z" fill="#4AAFFF"/>
<path d="M36.9159 12.4431H32.5555V13.2589H36.9159V12.4431Z" fill="#4AAFFF"/>
<path d="M36.9154 14.5453H29.9045V15.3611H36.9154V14.5453Z" fill="#4AAFFF"/>
<path d="M49.7915 41.9054V6.86024L24.2164 41.9054H49.7915Z" fill="white"/>
<path d="M24.2164 41.9054L49.7915 6.86024H24.2164V41.9054Z" fill="#F6F6F6"/>
<path d="M27.2941 15.2718L28.7101 17.5289L28.5425 17.521L31.3574 13.7998L31.7561 14.1223L28.7043 17.6521L28.6149 17.7557L28.5367 17.6442L27.0012 15.4669L27.2941 15.2718Z" fill="#FF695B"/>
<path d="M48.2386 14.6648H34.1454V15.5134H48.2386V14.6648Z" fill="#B2B2B2"/>
<path d="M46.7556 16.1431H34.1454V16.9917H46.7556V16.1431Z" fill="#B2B2B2"/>
<path d="M27.2941 22.6623L28.7101 24.9195L28.5425 24.9115L31.3574 21.1903L31.7561 21.5129L28.7043 25.0426L28.6149 25.1457L28.5367 25.0347L27.0012 22.8574L27.2941 22.6623Z" fill="#FF695B"/>
<path d="M48.2386 22.0553H34.1454V22.904H48.2386V22.0553Z" fill="#B2B2B2"/>
<path d="M46.7556 23.5337H34.1454V24.3823H46.7556V23.5337Z" fill="#B2B2B2"/>
<path d="M27.2941 30.0523L28.7101 32.3095L28.5425 32.3021L31.3574 28.5804L31.7561 28.9034L28.7043 32.4332L28.6149 32.5363L28.5367 32.4253L27.0012 30.2474L27.2941 30.0523Z" fill="#FF695B"/>
<path d="M48.2386 29.4459H34.1454V30.2945H48.2386V29.4459Z" fill="#B2B2B2"/>
<path d="M46.7556 30.9242H34.1454V31.7728H46.7556V30.9242Z" fill="#B2B2B2"/>
<path d="M27.2941 35.9651L28.7101 38.2222L28.5425 38.2143L31.3574 34.4931L31.7561 34.8156L28.7043 38.3454L28.6149 38.4485L28.5367 38.3375L27.0012 36.1602L27.2941 35.9651Z" fill="#FF695B"/>
<path d="M48.2386 35.3581H34.1454V36.2067H48.2386V35.3581Z" fill="#B2B2B2"/>
<path d="M46.7556 36.8364H34.1454V37.685H46.7556V36.8364Z" fill="#B2B2B2"/>
<path d="M48.2386 9.74287H25.9279V10.6829H48.2386V9.74287Z" fill="#FF695B"/>
<defs>
<linearGradient id="paint0_linear" x1="37" y1="30.3447" x2="37" y2="48.3796" gradientUnits="userSpaceOnUse">
<stop offset="0.08" stop-color="#C3DFE8"/>
<stop offset="1" stop-color="#B3C4E8"/>
</linearGradient>
<linearGradient id="paint1_linear" x1="35.7765" y1="54.1681" x2="37.8121" y2="56.2037" gradientUnits="userSpaceOnUse">
<stop stop-color="#93A6CC"/>
<stop offset="0.96" stop-color="#6985BD"/>
</linearGradient>
<linearGradient id="paint2_linear" x1="65.4381" y1="45.929" x2="3.94871" y2="32.4343" gradientUnits="userSpaceOnUse">
<stop stop-color="#40D5E6"/>
<stop offset="1" stop-color="#5577FF"/>
</linearGradient>
<linearGradient id="paint3_linear" x1="4010.04" y1="333.08" x2="4972.37" y2="333.08" gradientUnits="userSpaceOnUse">
<stop stop-color="#40D5E6"/>
<stop offset="1" stop-color="#5577FF"/>
</linearGradient>
<linearGradient id="paint4_linear" x1="3684.26" y1="401.383" x2="4495.13" y2="401.383" gradientUnits="userSpaceOnUse">
<stop stop-color="#40D5E6"/>
<stop offset="1" stop-color="#5577FF"/>
</linearGradient>
<linearGradient id="paint5_linear" x1="3193.08" y1="367.227" x2="3800.12" y2="367.227" gradientUnits="userSpaceOnUse">
<stop stop-color="#40D5E6"/>
<stop offset="1" stop-color="#5577FF"/>
</linearGradient>
<linearGradient id="paint6_linear" x1="26.4371" y1="22.8754" x2="37.6741" y2="22.8754" gradientUnits="userSpaceOnUse">
<stop stop-color="#D3DAE0"/>
<stop offset="1" stop-color="white"/>
</linearGradient>
</defs>
</svg>
