<svg width="70" height="64" viewBox="0 0 70 64" fill="none" xmlns="http://www.w3.org/2000/svg">
<rect width="70" height="64" rx="10" fill="#2D9CDB"/>
<path d="M50 8.56309V56.2702C49.9999 56.738 49.9077 57.2012 49.7286 57.6334C49.5495 58.0656 49.287 58.4582 48.9561 58.7889C48.6253 59.1197 48.2325 59.382 47.8002 59.5609C47.368 59.7398 46.9047 59.8318 46.4369 59.8317H23.5636C22.6188 59.8318 21.7126 59.4567 21.0444 58.7888C20.3761 58.1209 20.0004 57.215 20 56.2702V8.56309C20.0001 7.61805 20.3757 6.71177 21.0439 6.04357C21.7122 5.37538 22.6186 5 23.5636 5H46.4369C46.9048 4.99993 47.3682 5.09205 47.8005 5.27108C48.2328 5.45012 48.6257 5.71257 48.9565 6.04345C49.2874 6.37433 49.5499 6.76715 49.7289 7.19948C49.908 7.6318 50.0001 8.09516 50 8.56309V8.56309Z" fill="url(#paint0_linear)"/>
<path d="M47.718 7.39037H22.282V51.0749H47.718V7.39037Z" fill="#EFF4FF"/>
<path d="M38.1385 55.4253C38.1385 56.6974 36.7332 57.7284 35.0005 57.7284C33.2679 57.7284 31.861 56.6974 31.861 55.4253C31.861 54.1531 33.2663 53.1221 34.9995 53.1221C36.7326 53.1221 38.1385 54.1531 38.1385 55.4253Z" fill="url(#paint1_linear)"/>
<path d="M24.4921 33.1658H24.3821V47.2369H24.4921V33.1658Z" fill="#4AAFFF"/>
<path d="M29.8269 33.1658H29.717V47.2369H29.8269V33.1658Z" fill="#4AAFFF"/>
<path d="M35.1613 33.1658H35.0513V47.2369H35.1613V33.1658Z" fill="#4AAFFF"/>
<path d="M40.4956 33.1658H40.3856V47.2369H40.4956V33.1658Z" fill="#4AAFFF"/>
<path d="M45.8305 33.1658H45.7205V47.2369H45.8305V33.1658Z" fill="#4AAFFF"/>
<path d="M24.4371 41.5314C24.4371 41.5314 26.6107 43.3623 28.7113 41.194C30.8119 39.0257 33.2356 38.3014 35.3775 40.1271C37.5194 41.9528 38.3532 39.4471 40.4956 37.3935C42.638 35.34 42.6031 34.1715 45.7749 34.1715V47.2369H24.4371V41.5314Z" fill="url(#paint2_linear)"/>
<path d="M31.0969 31.9937H29.7714V32.506H31.0969V31.9937Z" fill="#4AAFFF"/>
<path d="M26.1861 31.9937H24.3821V32.506H26.1861V31.9937Z" fill="#4AAFFF"/>
<path d="M36.7401 31.9937H35.1063V32.506H36.7401V31.9937Z" fill="#4AAFFF"/>
<path d="M42.0194 31.9937H40.3856V32.506H42.0194V31.9937Z" fill="#4AAFFF"/>
<path d="M45.7755 31.9937H44.1417V32.506H45.7755V31.9937Z" fill="#4AAFFF"/>
<path d="M44.8423 22.7415H37.7092V23.6435H44.8423V22.7415Z" fill="url(#paint3_linear)"/>
<path d="M44.257 26.524H37.7092V27.426H44.257V26.524Z" fill="url(#paint4_linear)"/>
<path d="M43.3745 24.6327H37.7092V25.5347H43.3745V24.6327Z" fill="url(#paint5_linear)"/>
<path d="M31.3137 21.454C31.3137 21.7007 31.2406 21.9418 31.1035 22.1469C30.9665 22.3521 30.7717 22.5119 30.5438 22.6063C30.3159 22.7007 30.0651 22.7254 29.8231 22.6773C29.5812 22.6292 29.3589 22.5104 29.1845 22.336C29.0101 22.1615 28.8913 21.9393 28.8432 21.6973C28.795 21.4554 28.8197 21.2046 28.9141 20.9767C29.0085 20.7488 29.1684 20.554 29.3735 20.4169C29.5786 20.2799 29.8198 20.2067 30.0665 20.2067C30.3973 20.2067 30.7145 20.3381 30.9484 20.5721C31.1823 20.806 31.3137 21.1232 31.3137 21.454V21.454Z" fill="#4AAFFF"/>
<path d="M32.3167 25.5199V27.8939C31.6063 28.2152 30.8356 28.3814 30.0559 28.3814C29.2762 28.3814 28.5054 28.2152 27.795 27.8939V25.5199C27.795 24.9203 28.0332 24.3452 28.4572 23.9212C28.8812 23.4973 29.4563 23.2591 30.0559 23.2591C30.6555 23.2591 31.2305 23.4973 31.6545 23.9212C32.0785 24.3452 32.3167 24.9203 32.3167 25.5199V25.5199Z" fill="#4AAFFF"/>
<path d="M30.0559 28.5284C29.2548 28.5304 28.4627 28.3594 27.7337 28.0271C26.5648 27.4966 25.6128 26.5817 25.0362 25.4347C24.4597 24.2878 24.2932 22.978 24.5647 21.7233C24.8361 20.4686 25.529 19.3447 26.5281 18.5387C27.5272 17.7326 28.7722 17.293 30.0559 17.293C31.3396 17.293 32.5846 17.7326 33.5837 18.5387C34.5828 19.3447 35.2757 20.4686 35.5471 21.7233C35.8186 22.978 35.6521 24.2878 35.0755 25.4347C34.499 26.5817 33.547 27.4966 32.3781 28.0271C31.6491 28.3593 30.857 28.5303 30.0559 28.5284V28.5284ZM30.0559 17.5874C28.6444 17.5874 27.2907 18.1481 26.2926 19.1462C25.2945 20.1443 24.7337 21.4981 24.7337 22.9096C24.7337 24.3211 25.2945 25.6748 26.2926 26.6729C27.2907 27.671 28.6444 28.2318 30.0559 28.2318C30.8146 28.2332 31.5646 28.0709 32.2549 27.7559C33.3621 27.2531 34.2638 26.3863 34.8099 25.2999C35.3561 24.2134 35.5138 22.9726 35.2568 21.7841C34.9998 20.5955 34.3436 19.5307 33.3974 18.7669C32.4511 18.0031 31.2719 17.5863 30.0559 17.5858V17.5874Z" fill="url(#paint6_linear)"/>
<path d="M41.2025 20.5351C40.5312 20.5351 39.8749 20.336 39.3167 19.963C38.7585 19.59 38.3234 19.0599 38.0665 18.4396C37.8096 17.8194 37.7423 17.1369 37.8733 16.4784C38.0043 15.82 38.3276 15.2151 38.8023 14.7404C39.277 14.2657 39.8818 13.9424 40.5403 13.8114C41.1988 13.6805 41.8813 13.7477 42.5015 14.0046C43.1218 14.2615 43.6519 14.6966 44.0249 15.2548C44.3979 15.813 44.5969 16.4693 44.5969 17.1406C44.596 18.0406 44.238 18.9034 43.6017 19.5398C42.9653 20.1761 42.1025 20.5341 41.2025 20.5351V20.5351ZM41.2025 14.4261C40.6656 14.4259 40.1407 14.585 39.6941 14.8831C39.2476 15.1812 38.8995 15.6051 38.6939 16.1011C38.4883 16.5971 38.4344 17.1429 38.539 17.6696C38.6436 18.1962 38.9021 18.68 39.2817 19.0597C39.6612 19.4394 40.1449 19.6981 40.6715 19.8029C41.1981 19.9077 41.7439 19.854 42.24 19.6486C42.7361 19.4432 43.1601 19.0952 43.4584 18.6488C43.7567 18.2024 43.9159 17.6776 43.9159 17.1406C43.9151 16.4211 43.629 15.7314 43.1203 15.2225C42.6117 14.7136 41.922 14.4273 41.2025 14.4261V14.4261Z" fill="#FF6559"/>
<path d="M44.257 13.1614C43.9814 13.1614 43.7121 13.0797 43.483 12.9267C43.2539 12.7736 43.0753 12.5561 42.9699 12.3015C42.8644 12.047 42.8368 11.7669 42.8905 11.4966C42.9442 11.2264 43.0769 10.9781 43.2716 10.7833C43.4664 10.5884 43.7146 10.4557 43.9848 10.4019C44.2551 10.3481 44.5352 10.3756 44.7898 10.4809C45.0443 10.5863 45.262 10.7648 45.4151 10.9938C45.5683 11.2229 45.6501 11.4922 45.6502 11.7677C45.6499 12.1372 45.503 12.4914 45.2418 12.7527C44.9806 13.014 44.6264 13.161 44.257 13.1614ZM44.257 10.6542C44.0366 10.6543 43.8213 10.7198 43.6381 10.8422C43.455 10.9647 43.3123 11.1388 43.2281 11.3424C43.1438 11.546 43.1219 11.77 43.165 11.9861C43.2081 12.2022 43.3143 12.4006 43.4701 12.5563C43.626 12.7121 43.8246 12.8181 44.0407 12.861C44.2568 12.9038 44.4808 12.8817 44.6843 12.7973C44.8878 12.7128 45.0617 12.57 45.1841 12.3867C45.3064 12.2035 45.3716 11.988 45.3715 11.7677C45.3711 11.4723 45.2535 11.1892 45.0445 10.9804C44.8356 10.7717 44.5523 10.6543 44.257 10.6542V10.6542Z" fill="#FF6559"/>
<path d="M34.9159 10.375H29.801V11.1909H34.9159V10.375Z" fill="#4AAFFF"/>
<path d="M34.916 12.4767H30.5555V13.2926H34.916V12.4767Z" fill="#4AAFFF"/>
<path d="M34.9154 14.579H27.9045V15.3948H34.9154V14.579Z" fill="#4AAFFF"/>
<defs>
<linearGradient id="paint0_linear" x1="35" y1="30.3784" x2="35" y2="48.4133" gradientUnits="userSpaceOnUse">
<stop offset="0.08" stop-color="#C3DFE8"/>
<stop offset="1" stop-color="#B3C4E8"/>
</linearGradient>
<linearGradient id="paint1_linear" x1="33.7765" y1="54.2018" x2="35.8121" y2="56.2374" gradientUnits="userSpaceOnUse">
<stop stop-color="#93A6CC"/>
<stop offset="0.96" stop-color="#6985BD"/>
</linearGradient>
<linearGradient id="paint2_linear" x1="63.3837" y1="46.9101" x2="1.89373" y2="33.4154" gradientUnits="userSpaceOnUse">
<stop stop-color="#40D5E6"/>
<stop offset="1" stop-color="#5577FF"/>
</linearGradient>
<linearGradient id="paint3_linear" x1="4008.04" y1="333.114" x2="4970.37" y2="333.114" gradientUnits="userSpaceOnUse">
<stop stop-color="#40D5E6"/>
<stop offset="1" stop-color="#5577FF"/>
</linearGradient>
<linearGradient id="paint4_linear" x1="3682.26" y1="401.417" x2="4493.13" y2="401.417" gradientUnits="userSpaceOnUse">
<stop stop-color="#40D5E6"/>
<stop offset="1" stop-color="#5577FF"/>
</linearGradient>
<linearGradient id="paint5_linear" x1="3191.08" y1="367.261" x2="3798.12" y2="367.261" gradientUnits="userSpaceOnUse">
<stop stop-color="#40D5E6"/>
<stop offset="1" stop-color="#5577FF"/>
</linearGradient>
<linearGradient id="paint6_linear" x1="24.4371" y1="22.9091" x2="35.6742" y2="22.9091" gradientUnits="userSpaceOnUse">
<stop stop-color="#D3DAE0"/>
<stop offset="1" stop-color="white"/>
</linearGradient>
</defs>
</svg>
