<svg width="79" height="75" viewBox="0 0 79 75" fill="none" xmlns="http://www.w3.org/2000/svg">
<rect y="11" width="71" height="64" rx="10" fill="#EB5757"/>
<path d="M51 19.5631V67.2702C50.9999 67.738 50.9077 68.2012 50.7286 68.6334C50.5495 69.0656 50.287 69.4582 49.9561 69.7889C49.6253 70.1197 49.2325 70.382 48.8002 70.5609C48.368 70.7398 47.9047 70.8318 47.4369 70.8317H24.5636C23.6188 70.8318 22.7126 70.4567 22.0444 69.7888C21.3761 69.1209 21.0004 68.215 21 67.2702V19.5631C21.0001 18.6181 21.3757 17.7118 22.0439 17.0436C22.7122 16.3754 23.6186 16 24.5636 16H47.4369C47.9048 15.9999 48.3682 16.092 48.8005 16.2711C49.2328 16.4501 49.6257 16.7126 49.9565 17.0435C50.2874 17.3743 50.5499 17.7671 50.7289 18.1995C50.908 18.6318 51.0001 19.0952 51 19.5631V19.5631Z" fill="url(#paint0_linear)"/>
<path d="M48.718 18.3904H23.282V62.0749H48.718V18.3904Z" fill="#EFF4FF"/>
<path d="M39.1385 66.4253C39.1385 67.6974 37.7332 68.7284 36.0005 68.7284C34.2679 68.7284 32.861 67.6974 32.861 66.4253C32.861 65.1531 34.2663 64.1221 35.9995 64.1221C37.7326 64.1221 39.1385 65.1531 39.1385 66.4253Z" fill="url(#paint1_linear)"/>
<path d="M25.4921 44.1658H25.3821V58.2369H25.4921V44.1658Z" fill="#4AAFFF"/>
<path d="M30.8269 44.1658H30.717V58.2369H30.8269V44.1658Z" fill="#4AAFFF"/>
<path d="M36.1613 44.1658H36.0513V58.2369H36.1613V44.1658Z" fill="#4AAFFF"/>
<path d="M41.4956 44.1658H41.3856V58.2369H41.4956V44.1658Z" fill="#4AAFFF"/>
<path d="M46.8305 44.1658H46.7205V58.2369H46.8305V44.1658Z" fill="#4AAFFF"/>
<path d="M25.4371 52.5314C25.4371 52.5314 27.6107 54.3623 29.7113 52.194C31.8119 50.0257 34.2356 49.3014 36.3775 51.1271C38.5194 52.9528 39.3532 50.4471 41.4956 48.3935C43.638 46.34 43.6031 45.1715 46.7749 45.1715V58.2369H25.4371V52.5314Z" fill="url(#paint2_linear)"/>
<path d="M32.0969 42.9937H30.7714V43.506H32.0969V42.9937Z" fill="#4AAFFF"/>
<path d="M27.1861 42.9937H25.3821V43.506H27.1861V42.9937Z" fill="#4AAFFF"/>
<path d="M37.7401 42.9937H36.1063V43.506H37.7401V42.9937Z" fill="#4AAFFF"/>
<path d="M43.0194 42.9937H41.3856V43.506H43.0194V42.9937Z" fill="#4AAFFF"/>
<path d="M46.7755 42.9937H45.1417V43.506H46.7755V42.9937Z" fill="#4AAFFF"/>
<path d="M45.8423 33.7415H38.7092V34.6435H45.8423V33.7415Z" fill="url(#paint3_linear)"/>
<path d="M45.257 37.524H38.7092V38.426H45.257V37.524Z" fill="url(#paint4_linear)"/>
<path d="M44.3745 35.6327H38.7092V36.5347H44.3745V35.6327Z" fill="url(#paint5_linear)"/>
<path d="M32.3137 32.454C32.3137 32.7007 32.2406 32.9418 32.1035 33.1469C31.9665 33.3521 31.7717 33.5119 31.5438 33.6063C31.3159 33.7007 31.0651 33.7254 30.8231 33.6773C30.5812 33.6292 30.3589 33.5104 30.1845 33.336C30.0101 33.1615 29.8913 32.9393 29.8432 32.6973C29.795 32.4554 29.8197 32.2046 29.9141 31.9767C30.0085 31.7488 30.1684 31.554 30.3735 31.4169C30.5786 31.2799 30.8198 31.2067 31.0665 31.2067C31.3973 31.2067 31.7145 31.3381 31.9484 31.5721C32.1823 31.806 32.3137 32.1232 32.3137 32.454V32.454Z" fill="#4AAFFF"/>
<path d="M33.3167 36.5199V38.8939C32.6063 39.2152 31.8356 39.3814 31.0559 39.3814C30.2762 39.3814 29.5054 39.2152 28.795 38.8939V36.5199C28.795 35.9203 29.0332 35.3452 29.4572 34.9212C29.8812 34.4973 30.4563 34.2591 31.0559 34.2591C31.6555 34.2591 32.2305 34.4973 32.6545 34.9212C33.0785 35.3452 33.3167 35.9203 33.3167 36.5199V36.5199Z" fill="#4AAFFF"/>
<path d="M31.0559 39.5284C30.2548 39.5304 29.4627 39.3594 28.7337 39.0271C27.5648 38.4966 26.6128 37.5817 26.0362 36.4347C25.4597 35.2878 25.2932 33.978 25.5647 32.7233C25.8361 31.4686 26.529 30.3447 27.5281 29.5387C28.5272 28.7326 29.7722 28.293 31.0559 28.293C32.3396 28.293 33.5846 28.7326 34.5837 29.5387C35.5828 30.3447 36.2757 31.4686 36.5471 32.7233C36.8186 33.978 36.6521 35.2878 36.0755 36.4347C35.499 37.5817 34.547 38.4966 33.3781 39.0271C32.6491 39.3593 31.857 39.5303 31.0559 39.5284V39.5284ZM31.0559 28.5874C29.6444 28.5874 28.2907 29.1481 27.2926 30.1462C26.2945 31.1443 25.7337 32.4981 25.7337 33.9096C25.7337 35.3211 26.2945 36.6748 27.2926 37.6729C28.2907 38.671 29.6444 39.2318 31.0559 39.2318C31.8146 39.2332 32.5646 39.0709 33.2549 38.7559C34.3621 38.2531 35.2638 37.3863 35.8099 36.2999C36.3561 35.2134 36.5138 33.9726 36.2568 32.7841C35.9998 31.5955 35.3436 30.5307 34.3974 29.7669C33.4511 29.0031 32.2719 28.5863 31.0559 28.5858V28.5874Z" fill="url(#paint6_linear)"/>
<path d="M42.2025 31.5351C41.5312 31.5351 40.8749 31.336 40.3167 30.963C39.7585 30.59 39.3234 30.0599 39.0665 29.4396C38.8096 28.8194 38.7423 28.1369 38.8733 27.4784C39.0043 26.82 39.3276 26.2151 39.8023 25.7404C40.277 25.2657 40.8818 24.9424 41.5403 24.8114C42.1988 24.6805 42.8813 24.7477 43.5015 25.0046C44.1218 25.2615 44.6519 25.6966 45.0249 26.2548C45.3979 26.813 45.5969 27.4693 45.5969 28.1406C45.596 29.0406 45.238 29.9034 44.6017 30.5398C43.9653 31.1761 43.1025 31.5341 42.2025 31.5351V31.5351ZM42.2025 25.4261C41.6656 25.4259 41.1407 25.585 40.6941 25.8831C40.2476 26.1812 39.8995 26.6051 39.6939 27.1011C39.4883 27.5971 39.4344 28.1429 39.539 28.6696C39.6436 29.1962 39.9021 29.68 40.2817 30.0597C40.6612 30.4394 41.1449 30.6981 41.6715 30.8029C42.1981 30.9077 42.7439 30.854 43.24 30.6486C43.7361 30.4432 44.1601 30.0952 44.4584 29.6488C44.7567 29.2024 44.9159 28.6776 44.9159 28.1406C44.9151 27.4211 44.629 26.7314 44.1203 26.2225C43.6117 25.7136 42.922 25.4273 42.2025 25.4261V25.4261Z" fill="#FF6559"/>
<path d="M45.257 24.1614C44.9814 24.1614 44.7121 24.0797 44.483 23.9267C44.2539 23.7736 44.0753 23.5561 43.9699 23.3015C43.8644 23.047 43.8368 22.7669 43.8905 22.4966C43.9442 22.2264 44.0769 21.9781 44.2716 21.7833C44.4664 21.5884 44.7146 21.4557 44.9848 21.4019C45.2551 21.3481 45.5352 21.3756 45.7898 21.4809C46.0443 21.5863 46.262 21.7648 46.4151 21.9938C46.5683 22.2229 46.6501 22.4922 46.6502 22.7677C46.6499 23.1372 46.503 23.4914 46.2418 23.7527C45.9806 24.014 45.6264 24.161 45.257 24.1614ZM45.257 21.6542C45.0366 21.6543 44.8213 21.7198 44.6381 21.8422C44.455 21.9647 44.3123 22.1388 44.2281 22.3424C44.1438 22.546 44.1219 22.77 44.165 22.9861C44.2081 23.2022 44.3143 23.4006 44.4701 23.5563C44.626 23.7121 44.8246 23.8181 45.0407 23.861C45.2568 23.9038 45.4808 23.8817 45.6843 23.7973C45.8878 23.7128 46.0617 23.57 46.1841 23.3867C46.3064 23.2035 46.3716 22.988 46.3715 22.7677C46.3711 22.4723 46.2535 22.1892 46.0445 21.9804C45.8356 21.7717 45.5523 21.6543 45.257 21.6542V21.6542Z" fill="#FF6559"/>
<path d="M35.9159 21.375H30.801V22.1909H35.9159V21.375Z" fill="#4AAFFF"/>
<path d="M35.916 23.4767H31.5555V24.2926H35.916V23.4767Z" fill="#4AAFFF"/>
<path d="M35.9154 25.579H28.9045V26.3948H35.9154V25.579Z" fill="#4AAFFF"/>
<circle cx="67" cy="12" r="12" fill="#FFA8A8"/>
<path d="M67 5.64706C63.4918 5.64706 60.6471 8.49176 60.6471 12H58.5294L61.2753 14.7459L61.3247 14.8447L64.1765 12H62.0588C62.0588 9.26823 64.2682 7.05882 67 7.05882C69.7318 7.05882 71.9412 9.26823 71.9412 12C71.9412 14.7318 69.7318 16.9412 67 16.9412C65.6376 16.9412 64.4024 16.3835 63.5129 15.4871L62.5106 16.4894C63.6612 17.64 65.2424 18.3529 67 18.3529C70.5082 18.3529 73.3529 15.5082 73.3529 12C73.3529 8.49176 70.5082 5.64706 67 5.64706ZM66.2941 9.17647V12.7059L69.3153 14.4988L69.8235 13.6447L67.3529 12.1765V9.17647H66.2941Z" fill="white"/>
<defs>
<linearGradient id="paint0_linear" x1="36" y1="41.3784" x2="36" y2="59.4133" gradientUnits="userSpaceOnUse">
<stop offset="0.08" stop-color="#C3DFE8"/>
<stop offset="1" stop-color="#B3C4E8"/>
</linearGradient>
<linearGradient id="paint1_linear" x1="34.7765" y1="65.2018" x2="36.8121" y2="67.2374" gradientUnits="userSpaceOnUse">
<stop stop-color="#93A6CC"/>
<stop offset="0.96" stop-color="#6985BD"/>
</linearGradient>
<linearGradient id="paint2_linear" x1="64.3837" y1="57.9101" x2="2.89373" y2="44.4154" gradientUnits="userSpaceOnUse">
<stop stop-color="#40D5E6"/>
<stop offset="1" stop-color="#5577FF"/>
</linearGradient>
<linearGradient id="paint3_linear" x1="4009.04" y1="344.114" x2="4971.37" y2="344.114" gradientUnits="userSpaceOnUse">
<stop stop-color="#40D5E6"/>
<stop offset="1" stop-color="#5577FF"/>
</linearGradient>
<linearGradient id="paint4_linear" x1="3683.26" y1="412.417" x2="4494.13" y2="412.417" gradientUnits="userSpaceOnUse">
<stop stop-color="#40D5E6"/>
<stop offset="1" stop-color="#5577FF"/>
</linearGradient>
<linearGradient id="paint5_linear" x1="3192.08" y1="378.261" x2="3799.12" y2="378.261" gradientUnits="userSpaceOnUse">
<stop stop-color="#40D5E6"/>
<stop offset="1" stop-color="#5577FF"/>
</linearGradient>
<linearGradient id="paint6_linear" x1="25.4371" y1="33.9091" x2="36.6742" y2="33.9091" gradientUnits="userSpaceOnUse">
<stop stop-color="#D3DAE0"/>
<stop offset="1" stop-color="white"/>
</linearGradient>
</defs>
</svg>
