<svg width="64" height="64" viewBox="0 0 64 64" fill="none" xmlns="http://www.w3.org/2000/svg">
<rect width="64" height="64" rx="22" fill="url(#paint0_linear)"/>
<path d="M14 19.8235C14 16.6073 16.6073 14 19.8235 14H24.5882C27.8045 14 30.4118 16.6073 30.4118 19.8235V24.5882C30.4118 27.8045 27.8045 30.4118 24.5882 30.4118H19.8235C16.6073 30.4118 14 27.8045 14 24.5882V19.8235Z" fill="white"/>
<path d="M33.5882 20.3529C33.5882 17.1367 36.1955 14.5294 39.4118 14.5294H44.1765C47.3927 14.5294 50 17.1367 50 20.3529V25.1176C50 28.3339 47.3927 30.9412 44.1765 30.9412H39.4118C36.1955 30.9412 33.5882 28.3339 33.5882 25.1176V20.3529Z" fill="white"/>
<path d="M33.5882 39.4118C33.5882 36.1955 36.1955 33.5882 39.4118 33.5882H44.1765C47.3927 33.5882 50 36.1955 50 39.4118V44.1765C50 47.3927 47.3927 50 44.1765 50H39.4118C36.1955 50 33.5882 47.3927 33.5882 44.1765V39.4118Z" fill="white"/>
<path d="M14 39.4118C14 36.1955 16.6073 33.5882 19.8235 33.5882H24.5882C27.8045 33.5882 30.4118 36.1955 30.4118 39.4118V44.1765C30.4118 47.3927 27.8045 50 24.5882 50H19.8235C16.6073 50 14 47.3927 14 44.1765V39.4118Z" fill="white"/>
<defs>
<linearGradient id="paint0_linear" x1="32" y1="0" x2="32" y2="64" gradientUnits="userSpaceOnUse">
<stop stop-color="#56CCF2"/>
<stop offset="1" stop-color="#34B6FF"/>
</linearGradient>
</defs>
</svg>
