<svg width="34" height="25" viewBox="0 0 34 25" fill="none" xmlns="http://www.w3.org/2000/svg">
<path fill-rule="evenodd" clip-rule="evenodd" d="M0.0967736 18.8489C0.692072 17.1686 2.47797 14.2112 3.86501 12.0176C8.94886 3.54272 17.4973 -7.87736 18.6105 8.98085C20.2298 33.1347 27.7722 8.27206 28.3377 7.23942C28.9032 6.20679 31.9095 7.52049 31.7369 8.20484C31.5642 8.88919 18.7296 43.9071 15.9258 9.79962C15.1102 -0.117328 2.74585 12.2132 13.0088 10.4656C13.2425 10.4228 13.4825 10.434 13.7114 10.4985C13.9403 10.5629 14.1523 10.679 14.332 10.8383C14.5117 10.9975 14.6544 11.1959 14.7499 11.4189C14.8454 11.642 14.8912 11.8841 14.884 12.1276V12.2987C14.8603 12.8272 14.6615 13.3315 14.3205 13.7282C13.9795 14.1249 13.5167 14.3901 13.0088 14.4801C5.1449 15.8182 7.97852 16.191 3.34115 21.5558C2.23389 22.8389 -0.552101 20.1015 0.0967736 18.8489Z" fill="white"/>
<path fill-rule="evenodd" clip-rule="evenodd" d="M30.9392 4.88821C31.4102 4.88821 31.8706 4.74486 32.2622 4.4763C32.6537 4.20774 32.9589 3.82602 33.1392 3.37942C33.3194 2.93282 33.3666 2.44139 33.2747 1.96728C33.1828 1.49317 32.956 1.05768 32.623 0.715863C32.29 0.374049 31.8657 0.14127 31.4038 0.0469639C30.9419 -0.0473424 30.4631 0.00105898 30.028 0.186047C29.5929 0.371036 29.221 0.684303 28.9593 1.08623C28.6977 1.48816 28.558 1.96071 28.558 2.4441C28.5658 3.08986 28.8191 3.70693 29.264 4.16358C29.7089 4.62024 30.3101 4.88028 30.9392 4.88821V4.88821Z" fill="white"/>
</svg>
