<svg width="64" height="64" viewBox="0 0 64 64" fill="none" xmlns="http://www.w3.org/2000/svg">
<rect width="64" height="64" rx="22" fill="url(#paint0_linear)"/>
<path d="M42.9945 43H21.0037L21 41.8578C21 39.5497 21.1833 38.2168 23.9113 37.5862C26.9987 36.873 30.042 36.2368 28.5772 33.5363C24.2395 25.5375 27.3415 21 31.9982 21C36.565 21 39.7458 25.3688 35.4192 33.5382C33.9983 36.2222 36.9335 36.8602 40.085 37.588C42.8167 38.2187 42.9982 39.5533 42.9982 41.8652L42.9945 43ZM51.8147 38.941C49.4497 38.3947 47.2497 37.9162 48.3148 35.9032C51.558 29.7762 49.1747 26.5 45.7482 26.5C43.429 26.5 41.6268 27.9978 41.6268 30.7607C41.6268 37.9162 45.7848 34.0057 45.7445 43H53.9963L54 42.1512C54 40.4168 53.8643 39.414 51.8147 38.941ZM10.0037 43H18.2555C18.217 34.0057 22.3732 37.918 22.3732 30.7607C22.3732 27.9978 20.571 26.5 18.2518 26.5C14.8253 26.5 12.442 29.7762 15.687 35.9032C16.7522 37.918 14.5522 38.3947 12.1872 38.941C10.1357 39.414 10 40.4168 10 42.1512L10.0037 43V43Z" fill="white"/>
<defs>
<linearGradient id="paint0_linear" x1="32" y1="0" x2="32" y2="64" gradientUnits="userSpaceOnUse">
<stop stop-color="#56CCF2"/>
<stop offset="1" stop-color="#34B6FF"/>
</linearGradient>
</defs>
</svg>
