<svg width="33" height="43" viewBox="0 0 33 43" fill="none" xmlns="http://www.w3.org/2000/svg">
<path d="M9.26918 36.7064L11.5412 43L18.4625 23.9292L10.4052 20.9937L3.48389 40.0433L9.26918 36.7064Z" fill="#146B7F"/>
<path d="M23.238 36.7064L29.0233 40.0433L22.102 20.9937L14.0446 23.9293L20.9659 43L23.238 36.7064Z" fill="#13ADB7"/>
<path d="M16.2536 29.6103C23.5733 29.6103 29.5072 23.6534 29.5072 16.3052C29.5072 8.95693 23.5733 3 16.2536 3C8.93383 3 3 8.95693 3 16.3052C3 23.6534 8.93383 29.6103 16.2536 29.6103Z" fill="#BF9900" stroke="#C49100" stroke-width="5" stroke-miterlimit="10" stroke-linecap="round" stroke-linejoin="round"/>
<path d="M16.2536 4.45723L17.7052 5.74551L19.4513 4.90074L20.5031 6.52693L22.4175 6.18902L22.9856 8.04752L24.921 8.23759L24.9841 10.1806L26.7933 10.8775L26.3095 12.7782L27.8662 13.9398L26.9196 15.6294L28.0976 17.1711L26.7092 18.5438L27.4244 20.339L25.7415 21.2893L25.9518 23.2323L24.0585 23.6758L23.7429 25.5977L21.8075 25.5132L20.987 27.2872L19.1357 26.6959L17.8735 28.1531L16.2536 27.076L14.6337 28.1531L13.3714 26.6959L11.5202 27.2872L10.6997 25.5132L8.76425 25.5977L8.44869 23.6758L6.55532 23.2323L6.7657 21.2893L5.0827 20.339L5.79797 18.5438L4.43054 17.1711L5.5876 15.6294L4.64092 13.9398L6.19769 12.7782L5.71382 10.8775L7.52304 10.1806L7.58616 8.23759L9.5216 8.04752L10.0896 6.18902L12.004 6.52693L13.0559 4.90074L14.802 5.74551L16.2536 4.45723Z" fill="#9B6A11" stroke="#9B6A11" stroke-width="3" stroke-miterlimit="10" stroke-linecap="round" stroke-linejoin="round"/>
<path d="M25.5311 16.3052C25.5311 21.4583 21.3867 25.6188 16.2536 25.6188C11.1204 25.6188 6.97607 21.4583 6.97607 16.3052C6.97607 11.1521 11.1204 6.99155 16.2536 6.99155C21.3867 6.99155 25.5311 11.1521 25.5311 16.3052Z" fill="#BF9900"/>
<path d="M20.1797 13.1328C20.1797 13.8464 19.9635 14.4531 19.5312 14.9531C19.099 15.4531 18.4922 15.7969 17.7109 15.9844V16.0312C18.6328 16.1458 19.3307 16.4271 19.8047 16.875C20.2786 17.3177 20.5156 17.9167 20.5156 18.6719C20.5156 19.7708 20.1172 20.6276 19.3203 21.2422C18.5234 21.8516 17.3854 22.1562 15.9062 22.1562C14.6667 22.1562 13.5677 21.9505 12.6094 21.5391V19.4844C13.0521 19.7083 13.5391 19.8906 14.0703 20.0312C14.6016 20.1719 15.1276 20.2422 15.6484 20.2422C16.4453 20.2422 17.0339 20.1068 17.4141 19.8359C17.7943 19.5651 17.9844 19.1302 17.9844 18.5312C17.9844 17.9948 17.7656 17.6146 17.3281 17.3906C16.8906 17.1667 16.1927 17.0547 15.2344 17.0547H14.3672V15.2031H15.25C16.1354 15.2031 16.7812 15.0885 17.1875 14.8594C17.599 14.625 17.8047 14.2266 17.8047 13.6641C17.8047 12.7995 17.263 12.3672 16.1797 12.3672C15.8047 12.3672 15.4219 12.4297 15.0312 12.5547C14.6458 12.6797 14.2161 12.8958 13.7422 13.2031L12.625 11.5391C13.6667 10.7891 14.9089 10.4141 16.3516 10.4141C17.5339 10.4141 18.4661 10.6536 19.1484 11.1328C19.8359 11.612 20.1797 12.2786 20.1797 13.1328Z" fill="white"/>
</svg>
