<svg width="187" height="43" viewBox="0 0 187 43" fill="none" xmlns="http://www.w3.org/2000/svg">
<path d="M35.4486 0H6.12284C2.74129 0 0 2.82312 0 6.30561V36.5068C0 39.9893 2.74129 42.8124 6.12284 42.8124H35.4486C38.8301 42.8124 41.5714 39.9893 41.5714 36.5068V6.30561C41.5714 2.82312 38.8301 0 35.4486 0Z" fill="#0992FF"/>
<path fill-rule="evenodd" clip-rule="evenodd" d="M5.45108 27.3036C6.0017 25.7442 7.65354 22.9997 8.93648 20.964C13.6387 13.099 21.5456 2.50078 22.5752 18.1457C24.0729 40.5613 31.0492 17.4879 31.5723 16.5296C32.0953 15.5713 34.8759 16.7905 34.7163 17.4256C34.5566 18.0607 22.6853 50.5584 20.0919 18.9056C19.3376 9.70233 7.90132 21.1454 17.3939 19.5237C17.6101 19.4839 17.8321 19.4943 18.0438 19.5541C18.2555 19.6139 18.4516 19.7217 18.6178 19.8694C18.784 20.0172 18.9161 20.2013 19.0044 20.4083C19.0927 20.6153 19.1351 20.84 19.1284 21.066V21.2248C19.1064 21.7152 18.9226 22.1833 18.6071 22.5514C18.2917 22.9195 17.8637 23.1657 17.3939 23.2492C10.1203 24.491 12.7412 24.8369 8.45193 29.8156C7.42779 31.0064 4.85091 28.4661 5.45108 27.3036Z" fill="white"/>
<path fill-rule="evenodd" clip-rule="evenodd" d="M33.9785 15.4012C34.4141 15.4012 34.8399 15.2681 35.2021 15.0189C35.5643 14.7697 35.8466 14.4154 36.0133 14.001C36.18 13.5865 36.2236 13.1304 36.1386 12.6904C36.0536 12.2505 35.8439 11.8463 35.5358 11.5291C35.2278 11.2119 34.8354 10.9958 34.4081 10.9083C33.9809 10.8208 33.5381 10.8657 33.1356 11.0374C32.7332 11.2091 32.3892 11.4998 32.1472 11.8728C31.9052 12.2458 31.776 12.6843 31.776 13.133C31.7831 13.7322 32.0175 14.3049 32.429 14.7287C32.8405 15.1525 33.3966 15.3938 33.9785 15.4012V15.4012Z" fill="white"/>
<path d="M68.7857 20.3595L67.4753 16.0572H60.8858L59.5754 20.3595H55.4462L61.8254 2.21081H66.511L72.9149 20.3595H68.7857ZM66.5604 12.8429C65.3488 8.94446 64.6648 6.73975 64.5082 6.22875C64.3598 5.71775 64.2527 5.3139 64.1867 5.01719C63.9147 6.07215 63.1359 8.68072 61.8501 12.8429H66.5604Z" fill="white"/>
<path d="M75.2021 20.3595V2.28499H79.0346V20.3595H75.2021Z" fill="white"/>
<path d="M87.4166 10.7907H88.6776C89.8562 10.7907 90.7381 10.5599 91.3233 10.0983C91.9084 9.62854 92.201 8.94858 92.201 8.05846C92.201 7.16009 91.9538 6.49661 91.4593 6.06803C90.973 5.63945 90.2065 5.42516 89.1598 5.42516H87.4166V10.7907ZM96.0706 7.92246C96.0706 9.86756 95.4607 11.3552 94.2409 12.3855C93.0293 13.4157 91.3027 13.9308 89.0609 13.9308H87.4166V20.3595H83.5841V2.28499H89.3576C91.5499 2.28499 93.2148 2.7589 94.3522 3.70672C95.4978 4.6463 96.0706 6.05155 96.0706 7.92246Z" fill="white"/>
<path d="M115.888 11.2975C115.888 14.2894 115.147 16.5889 113.663 18.196C112.179 19.8032 110.053 20.6068 107.284 20.6068C104.514 20.6068 102.388 19.8032 100.905 18.196C99.421 16.5889 98.6792 14.2811 98.6792 11.2728C98.6792 8.2645 99.421 5.96913 100.905 4.38668C102.396 2.79599 104.531 2.00064 107.308 2.00064C110.086 2.00064 112.208 2.80011 113.675 4.39904C115.151 5.99798 115.888 8.29747 115.888 11.2975ZM102.697 11.2975C102.697 13.3168 103.08 14.8374 103.847 15.8594C104.613 16.8814 105.759 17.3924 107.284 17.3924C110.342 17.3924 111.87 15.3608 111.87 11.2975C111.87 7.22602 110.35 5.19027 107.308 5.19027C105.784 5.19027 104.634 5.70539 103.859 6.73563C103.084 7.75763 102.697 9.27826 102.697 11.2975Z" fill="white"/>
<path d="M130.303 15.3402C130.303 16.9721 129.714 18.2578 128.536 19.1974C127.365 20.137 125.733 20.6068 123.64 20.6068C121.711 20.6068 120.005 20.2441 118.522 19.5189V15.9583C119.741 16.5023 120.772 16.8856 121.612 17.1081C122.461 17.3306 123.236 17.4419 123.937 17.4419C124.777 17.4419 125.42 17.2812 125.865 16.9597C126.318 16.6383 126.545 16.1603 126.545 15.5256C126.545 15.1712 126.446 14.858 126.248 14.5861C126.051 14.3058 125.758 14.038 125.371 13.7825C124.992 13.527 124.213 13.119 123.034 12.5585C121.93 12.0393 121.101 11.5407 120.549 11.0626C119.997 10.5846 119.556 10.0283 119.226 9.39365C118.897 8.75902 118.732 8.01725 118.732 7.16833C118.732 5.56939 119.272 4.3125 120.351 3.39765C121.439 2.48279 122.939 2.02537 124.851 2.02537C125.791 2.02537 126.685 2.13663 127.534 2.35916C128.391 2.5817 129.286 2.89489 130.217 3.29874L128.981 6.2782C128.016 5.88259 127.217 5.60648 126.582 5.44989C125.956 5.29329 125.338 5.21499 124.728 5.21499C124.003 5.21499 123.446 5.38395 123.059 5.72187C122.671 6.05979 122.478 6.50073 122.478 7.0447C122.478 7.38262 122.556 7.67933 122.713 7.93483C122.869 8.18209 123.116 8.42522 123.454 8.66424C123.801 8.89501 124.612 9.31535 125.89 9.92525C127.579 10.733 128.737 11.5448 129.364 12.3607C129.99 13.1685 130.303 14.1616 130.303 15.3402Z" fill="white"/>
<path d="M58 32.7637L56.7988 33.9473V37H56.0781V28.4688H56.7988V33.0684L61.1699 28.4688H62.0781L58.5039 32.2656L62.3535 37H61.4746L58 32.7637Z" fill="white"/>
<path d="M67.4863 37C67.416 36.8008 67.3711 36.5059 67.3516 36.1152C67.1055 36.4355 66.791 36.6836 66.4082 36.8594C66.0293 37.0312 65.627 37.1172 65.2012 37.1172C64.5918 37.1172 64.0977 36.9473 63.7188 36.6074C63.3438 36.2676 63.1562 35.8379 63.1562 35.3184C63.1562 34.7012 63.4121 34.2129 63.9238 33.8535C64.4395 33.4941 65.1562 33.3145 66.0742 33.3145H67.3457V32.5938C67.3457 32.1406 67.2051 31.7852 66.9238 31.5273C66.6465 31.2656 66.2402 31.1348 65.7051 31.1348C65.2168 31.1348 64.8125 31.2598 64.4922 31.5098C64.1719 31.7598 64.0117 32.0605 64.0117 32.4121L63.3086 32.4062C63.3086 31.9023 63.543 31.4668 64.0117 31.0996C64.4805 30.7285 65.0566 30.543 65.7402 30.543C66.4473 30.543 67.0039 30.7207 67.4102 31.0762C67.8203 31.4277 68.0312 31.9199 68.043 32.5527V35.5527C68.043 36.166 68.1074 36.625 68.2363 36.9297V37H67.4863ZM65.2832 36.4961C65.752 36.4961 66.1699 36.3828 66.5371 36.1562C66.9082 35.9297 67.1777 35.627 67.3457 35.248V33.8535H66.0918C65.3926 33.8613 64.8457 33.9902 64.4512 34.2402C64.0566 34.4863 63.8594 34.8262 63.8594 35.2598C63.8594 35.6152 63.9902 35.9102 64.252 36.1445C64.5176 36.3789 64.8613 36.4961 65.2832 36.4961Z" fill="white"/>
<path d="M73.7148 35.3887C73.7148 35.041 73.5742 34.7617 73.293 34.5508C73.0156 34.3398 72.5957 34.1758 72.0332 34.0586C71.4707 33.9375 71.0332 33.8008 70.7207 33.6484C70.4121 33.4922 70.1816 33.3027 70.0293 33.0801C69.8809 32.8574 69.8066 32.5879 69.8066 32.2715C69.8066 31.7715 70.0156 31.3594 70.4336 31.0352C70.8516 30.707 71.3867 30.543 72.0391 30.543C72.7461 30.543 73.3125 30.7188 73.7383 31.0703C74.168 31.418 74.3828 31.873 74.3828 32.4355H73.6797C73.6797 32.0645 73.5234 31.7559 73.2109 31.5098C72.9023 31.2637 72.5117 31.1406 72.0391 31.1406C71.5781 31.1406 71.207 31.2441 70.9258 31.4512C70.6484 31.6543 70.5098 31.9199 70.5098 32.248C70.5098 32.5645 70.625 32.8105 70.8555 32.9863C71.0898 33.1582 71.5137 33.3164 72.127 33.4609C72.7441 33.6055 73.2051 33.7598 73.5098 33.9238C73.8184 34.0879 74.0469 34.2852 74.1953 34.5156C74.3438 34.7461 74.418 35.0254 74.418 35.3535C74.418 35.8887 74.2012 36.3164 73.7676 36.6367C73.3379 36.957 72.7754 37.1172 72.0801 37.1172C71.3418 37.1172 70.7422 36.9395 70.2812 36.584C69.8242 36.2246 69.5957 35.7715 69.5957 35.2246H70.2988C70.3262 35.6348 70.498 35.9551 70.8145 36.1855C71.1348 36.4121 71.5566 36.5254 72.0801 36.5254C72.5684 36.5254 72.9629 36.418 73.2637 36.2031C73.5645 35.9883 73.7148 35.7168 73.7148 35.3887Z" fill="white"/>
<path d="M76.7852 37H76.082V30.6602H76.7852V37ZM75.959 28.8262C75.959 28.6934 76.002 28.582 76.0879 28.4922C76.1738 28.3984 76.291 28.3516 76.4395 28.3516C76.5879 28.3516 76.7051 28.3984 76.791 28.4922C76.8809 28.582 76.9258 28.6934 76.9258 28.8262C76.9258 28.959 76.8809 29.0703 76.791 29.1602C76.7051 29.25 76.5879 29.2949 76.4395 29.2949C76.291 29.2949 76.1738 29.25 76.0879 29.1602C76.002 29.0703 75.959 28.959 75.959 28.8262Z" fill="white"/>
<path d="M81.625 31.2578C81.4766 31.2305 81.3184 31.2168 81.1504 31.2168C80.7129 31.2168 80.3418 31.3398 80.0371 31.5859C79.7363 31.8281 79.5215 32.1816 79.3926 32.6465V37H78.6953V30.6602H79.3809L79.3926 31.668C79.7637 30.918 80.3594 30.543 81.1797 30.543C81.375 30.543 81.5293 30.5684 81.6426 30.6191L81.625 31.2578Z" fill="white"/>
<path d="M81.8652 38.5938L81.4492 38.2891C81.8047 37.8125 81.9883 37.3184 82 36.8066V35.8984H82.6855V36.6309C82.6855 37.4434 82.4121 38.0977 81.8652 38.5938Z" fill="white"/>
<path d="M93.4316 34.3398C93.334 35.2383 93.0117 35.9258 92.4648 36.4023C91.9219 36.8789 91.1973 37.1172 90.291 37.1172C89.6582 37.1172 89.0977 36.959 88.6094 36.6426C88.125 36.3262 87.75 35.8789 87.4844 35.3008C87.2188 34.7188 87.084 34.0547 87.0801 33.3086V32.2012C87.0801 31.4434 87.2129 30.7715 87.4785 30.1855C87.7441 29.5996 88.125 29.1484 88.6211 28.832C89.1211 28.5117 89.6953 28.3516 90.3438 28.3516C91.2578 28.3516 91.9785 28.5996 92.5059 29.0957C93.0371 29.5879 93.3457 30.2695 93.4316 31.1406H92.7051C92.5254 29.6914 91.7383 28.9668 90.3438 28.9668C89.5703 28.9668 88.9531 29.2559 88.4922 29.834C88.0352 30.4121 87.8066 31.2109 87.8066 32.2305V33.2734C87.8066 34.2578 88.0293 35.043 88.4746 35.6289C88.9238 36.2148 89.5293 36.5078 90.291 36.5078C91.0449 36.5078 91.6133 36.3281 91.9961 35.9688C92.3789 35.6055 92.6152 35.0625 92.7051 34.3398H93.4316Z" fill="white"/>
<path d="M99.0215 37C98.9512 36.8008 98.9062 36.5059 98.8867 36.1152C98.6406 36.4355 98.3262 36.6836 97.9434 36.8594C97.5645 37.0312 97.1621 37.1172 96.7363 37.1172C96.127 37.1172 95.6328 36.9473 95.2539 36.6074C94.8789 36.2676 94.6914 35.8379 94.6914 35.3184C94.6914 34.7012 94.9473 34.2129 95.459 33.8535C95.9746 33.4941 96.6914 33.3145 97.6094 33.3145H98.8809V32.5938C98.8809 32.1406 98.7402 31.7852 98.459 31.5273C98.1816 31.2656 97.7754 31.1348 97.2402 31.1348C96.752 31.1348 96.3477 31.2598 96.0273 31.5098C95.707 31.7598 95.5469 32.0605 95.5469 32.4121L94.8438 32.4062C94.8438 31.9023 95.0781 31.4668 95.5469 31.0996C96.0156 30.7285 96.5918 30.543 97.2754 30.543C97.9824 30.543 98.5391 30.7207 98.9453 31.0762C99.3555 31.4277 99.5664 31.9199 99.5781 32.5527V35.5527C99.5781 36.166 99.6426 36.625 99.7715 36.9297V37H99.0215ZM96.8184 36.4961C97.2871 36.4961 97.7051 36.3828 98.0723 36.1562C98.4434 35.9297 98.7129 35.627 98.8809 35.248V33.8535H97.627C96.9277 33.8613 96.3809 33.9902 95.9863 34.2402C95.5918 34.4863 95.3945 34.8262 95.3945 35.2598C95.3945 35.6152 95.5254 35.9102 95.7871 36.1445C96.0527 36.3789 96.3965 36.4961 96.8184 36.4961Z" fill="white"/>
<path d="M101.957 37V31.2344H100.908V30.6602H101.957V29.8926C101.957 29.2441 102.121 28.7461 102.449 28.3984C102.781 28.0508 103.242 27.877 103.832 27.877C104.098 27.877 104.346 27.9102 104.576 27.9766L104.523 28.5625C104.328 28.5156 104.115 28.4922 103.885 28.4922C103.498 28.4922 103.197 28.6133 102.982 28.8555C102.768 29.0938 102.66 29.4336 102.66 29.875V30.6602H104.172V31.2344H102.66V37H101.957Z" fill="white"/>
<path d="M107.74 37.1172C107.201 37.1172 106.713 36.9844 106.275 36.7188C105.842 36.4531 105.504 36.084 105.262 35.6113C105.02 35.1348 104.898 34.6016 104.898 34.0117V33.7598C104.898 33.1504 105.016 32.6016 105.25 32.1133C105.488 31.625 105.818 31.2422 106.24 30.9648C106.662 30.6836 107.119 30.543 107.611 30.543C108.381 30.543 108.99 30.8066 109.439 31.334C109.893 31.8574 110.119 32.5742 110.119 33.4844V33.877H105.596V34.0117C105.596 34.7305 105.801 35.3301 106.211 35.8105C106.625 36.2871 107.145 36.5254 107.77 36.5254C108.145 36.5254 108.475 36.457 108.76 36.3203C109.049 36.1836 109.311 35.9648 109.545 35.6641L109.984 35.998C109.469 36.7441 108.721 37.1172 107.74 37.1172ZM107.611 31.1406C107.084 31.1406 106.639 31.334 106.275 31.7207C105.916 32.1074 105.697 32.627 105.619 33.2793H109.422V33.2031C109.402 32.5938 109.229 32.0977 108.9 31.7148C108.572 31.332 108.143 31.1406 107.611 31.1406Z" fill="white"/>
<path d="M115.855 32.3477C115.516 31.9375 115.268 31.5723 115.111 31.252C114.959 30.9277 114.883 30.6074 114.883 30.291C114.883 29.6934 115.061 29.2207 115.416 28.873C115.771 28.5254 116.248 28.3516 116.846 28.3516C117.389 28.3516 117.828 28.5098 118.164 28.8262C118.5 29.1387 118.668 29.5371 118.668 30.0215C118.668 30.584 118.344 31.1367 117.695 31.6797L116.758 32.4062L119.102 35.1367C119.457 34.5625 119.635 33.9121 119.635 33.1855H120.285C120.285 34.1543 120.035 34.9727 119.535 35.6406L120.701 37H119.857L119.119 36.1445C118.811 36.4492 118.453 36.6875 118.047 36.8594C117.645 37.0312 117.219 37.1172 116.77 37.1172C115.957 37.1172 115.312 36.9102 114.836 36.4961C114.359 36.0781 114.121 35.5215 114.121 34.8262C114.121 34.4121 114.242 34.0215 114.484 33.6543C114.73 33.2832 115.16 32.8672 115.773 32.4062L115.855 32.3477ZM116.77 36.5254C117.125 36.5254 117.469 36.4512 117.801 36.3027C118.137 36.1504 118.438 35.9355 118.703 35.6582L116.318 32.8926L116.236 32.8047L115.967 33.0098C115.201 33.6348 114.818 34.2402 114.818 34.8262C114.818 35.3379 114.994 35.75 115.346 36.0625C115.697 36.3711 116.172 36.5254 116.77 36.5254ZM115.586 30.2676C115.586 30.7441 115.85 31.3066 116.377 31.9551L117.145 31.3691C117.395 31.1895 117.6 30.9922 117.76 30.7773C117.92 30.5625 118 30.3105 118 30.0215C118 29.7168 117.895 29.4629 117.684 29.2598C117.473 29.0527 117.191 28.9492 116.84 28.9492C116.457 28.9492 116.152 29.0723 115.926 29.3184C115.699 29.5645 115.586 29.8809 115.586 30.2676Z" fill="white"/>
<path d="M131.172 33.1973C131.172 33.9824 131.035 34.6719 130.762 35.2656C130.492 35.8594 130.105 36.3164 129.602 36.6367C129.098 36.957 128.516 37.1172 127.855 37.1172C126.859 37.1172 126.055 36.7617 125.441 36.0508C124.828 35.3359 124.521 34.373 124.521 33.1621V32.2832C124.521 31.5059 124.658 30.8184 124.932 30.2207C125.209 29.6191 125.6 29.1582 126.104 28.8379C126.607 28.5137 127.188 28.3516 127.844 28.3516C128.5 28.3516 129.078 28.5098 129.578 28.8262C130.082 29.1426 130.471 29.5898 130.744 30.168C131.018 30.7461 131.16 31.416 131.172 32.1777V33.1973ZM130.451 32.2715C130.451 31.2441 130.219 30.4395 129.754 29.8574C129.289 29.2754 128.652 28.9844 127.844 28.9844C127.051 28.9844 126.418 29.2773 125.945 29.8633C125.477 30.4453 125.242 31.2598 125.242 32.3066V33.1973C125.242 34.209 125.477 35.0117 125.945 35.6055C126.414 36.1953 127.051 36.4902 127.855 36.4902C128.672 36.4902 129.309 36.1992 129.766 35.6172C130.223 35.0312 130.451 34.2168 130.451 33.1738V32.2715Z" fill="white"/>
<path d="M133.492 30.6602L133.516 31.7441C133.754 31.3535 134.051 31.0566 134.406 30.8535C134.762 30.6465 135.154 30.543 135.584 30.543C136.264 30.543 136.77 30.7344 137.102 31.1172C137.434 31.5 137.602 32.0742 137.605 32.8398V37H136.908V32.834C136.904 32.2676 136.783 31.8457 136.545 31.5684C136.311 31.291 135.934 31.1523 135.414 31.1523C134.98 31.1523 134.596 31.2891 134.26 31.5625C133.928 31.832 133.682 32.1973 133.521 32.6582V37H132.824V30.6602H133.492Z" fill="white"/>
<path d="M140.207 37H139.504V28H140.207V37Z" fill="white"/>
<path d="M142.902 37H142.199V30.6602H142.902V37ZM142.076 28.8262C142.076 28.6934 142.119 28.582 142.205 28.4922C142.291 28.3984 142.408 28.3516 142.557 28.3516C142.705 28.3516 142.822 28.3984 142.908 28.4922C142.998 28.582 143.043 28.6934 143.043 28.8262C143.043 28.959 142.998 29.0703 142.908 29.1602C142.822 29.25 142.705 29.2949 142.557 29.2949C142.408 29.2949 142.291 29.25 142.205 29.1602C142.119 29.0703 142.076 28.959 142.076 28.8262Z" fill="white"/>
<path d="M145.48 30.6602L145.504 31.7441C145.742 31.3535 146.039 31.0566 146.395 30.8535C146.75 30.6465 147.143 30.543 147.572 30.543C148.252 30.543 148.758 30.7344 149.09 31.1172C149.422 31.5 149.59 32.0742 149.594 32.8398V37H148.896V32.834C148.893 32.2676 148.771 31.8457 148.533 31.5684C148.299 31.291 147.922 31.1523 147.402 31.1523C146.969 31.1523 146.584 31.2891 146.248 31.5625C145.916 31.832 145.67 32.1973 145.51 32.6582V37H144.812V30.6602H145.48Z" fill="white"/>
<path d="M153.865 37.1172C153.326 37.1172 152.838 36.9844 152.4 36.7188C151.967 36.4531 151.629 36.084 151.387 35.6113C151.145 35.1348 151.023 34.6016 151.023 34.0117V33.7598C151.023 33.1504 151.141 32.6016 151.375 32.1133C151.613 31.625 151.943 31.2422 152.365 30.9648C152.787 30.6836 153.244 30.543 153.736 30.543C154.506 30.543 155.115 30.8066 155.564 31.334C156.018 31.8574 156.244 32.5742 156.244 33.4844V33.877H151.721V34.0117C151.721 34.7305 151.926 35.3301 152.336 35.8105C152.75 36.2871 153.27 36.5254 153.895 36.5254C154.27 36.5254 154.6 36.457 154.885 36.3203C155.174 36.1836 155.436 35.9648 155.67 35.6641L156.109 35.998C155.594 36.7441 154.846 37.1172 153.865 37.1172ZM153.736 31.1406C153.209 31.1406 152.764 31.334 152.4 31.7207C152.041 32.1074 151.822 32.627 151.744 33.2793H155.547V33.2031C155.527 32.5938 155.354 32.0977 155.025 31.7148C154.697 31.332 154.268 31.1406 153.736 31.1406Z" fill="white"/>
<path d="M165.52 34.9023C165.52 34.4297 165.354 34.0566 165.021 33.7832C164.689 33.5059 164.082 33.2441 163.199 32.998C162.316 32.748 161.672 32.4766 161.266 32.1836C160.688 31.7695 160.398 31.2266 160.398 30.5547C160.398 29.9023 160.666 29.373 161.201 28.9668C161.74 28.5566 162.428 28.3516 163.264 28.3516C163.83 28.3516 164.336 28.4609 164.781 28.6797C165.23 28.8984 165.578 29.2031 165.824 29.5938C166.07 29.9844 166.193 30.4199 166.193 30.9004H165.467C165.467 30.3184 165.268 29.8516 164.869 29.5C164.471 29.1445 163.936 28.9668 163.264 28.9668C162.611 28.9668 162.092 29.1133 161.705 29.4062C161.318 29.6953 161.125 30.0742 161.125 30.543C161.125 30.9766 161.299 31.3301 161.646 31.6035C161.994 31.877 162.551 32.1191 163.316 32.3301C164.082 32.5371 164.662 32.7539 165.057 32.9805C165.451 33.2031 165.748 33.4707 165.947 33.7832C166.146 34.0957 166.246 34.4648 166.246 34.8906C166.246 35.5625 165.977 36.1016 165.438 36.5078C164.902 36.9141 164.195 37.1172 163.316 37.1172C162.715 37.1172 162.162 37.0098 161.658 36.7949C161.158 36.5801 160.777 36.2793 160.516 35.8926C160.258 35.5059 160.129 35.0625 160.129 34.5625H160.85C160.85 35.1641 161.074 35.6387 161.523 35.9863C161.973 36.334 162.57 36.5078 163.316 36.5078C163.98 36.5078 164.514 36.3613 164.916 36.0684C165.318 35.7754 165.52 35.3867 165.52 34.9023Z" fill="white"/>
<path d="M168.338 31.7324C168.568 31.3535 168.863 31.0605 169.223 30.8535C169.582 30.6465 169.975 30.543 170.4 30.543C171.08 30.543 171.586 30.7344 171.918 31.1172C172.25 31.5 172.418 32.0742 172.422 32.8398V37H171.725V32.834C171.721 32.2676 171.6 31.8457 171.361 31.5684C171.127 31.291 170.75 31.1523 170.23 31.1523C169.797 31.1523 169.412 31.2891 169.076 31.5625C168.744 31.832 168.498 32.1973 168.338 32.6582V37H167.641V28H168.338V31.7324Z" fill="white"/>
<path d="M173.84 33.7363C173.84 33.127 173.957 32.5781 174.191 32.0898C174.43 31.6016 174.764 31.2227 175.193 30.9531C175.627 30.6797 176.117 30.543 176.664 30.543C177.508 30.543 178.191 30.8398 178.715 31.4336C179.238 32.0234 179.5 32.8066 179.5 33.7832V33.9297C179.5 34.543 179.381 35.0957 179.143 35.5879C178.908 36.0762 178.576 36.4531 178.146 36.7188C177.717 36.9844 177.227 37.1172 176.676 37.1172C175.836 37.1172 175.152 36.8223 174.625 36.2324C174.102 35.6387 173.84 34.8535 173.84 33.877V33.7363ZM174.543 33.9297C174.543 34.6875 174.738 35.3105 175.129 35.7988C175.523 36.2832 176.039 36.5254 176.676 36.5254C177.309 36.5254 177.82 36.2832 178.211 35.7988C178.605 35.3105 178.803 34.668 178.803 33.8711V33.7363C178.803 33.252 178.713 32.8086 178.533 32.4062C178.354 32.0039 178.102 31.6934 177.777 31.4746C177.453 31.252 177.082 31.1406 176.664 31.1406C176.039 31.1406 175.529 31.3867 175.135 31.8789C174.74 32.3672 174.543 33.0078 174.543 33.8008V33.9297Z" fill="white"/>
<path d="M186.051 33.8945C186.051 34.8828 185.832 35.668 185.395 36.25C184.957 36.8281 184.371 37.1172 183.637 37.1172C182.77 37.1172 182.105 36.8125 181.645 36.2031V39.4375H180.947V30.6602H181.598L181.633 31.5566C182.09 30.8809 182.752 30.543 183.619 30.543C184.377 30.543 184.971 30.8301 185.4 31.4043C185.834 31.9785 186.051 32.7754 186.051 33.7949V33.8945ZM185.348 33.7715C185.348 32.9629 185.182 32.3242 184.85 31.8555C184.518 31.3867 184.055 31.1523 183.461 31.1523C183.031 31.1523 182.662 31.2559 182.354 31.4629C182.045 31.6699 181.809 31.9707 181.645 32.3652V35.4062C181.812 35.7695 182.053 36.0469 182.365 36.2383C182.678 36.4297 183.047 36.5254 183.473 36.5254C184.062 36.5254 184.521 36.291 184.85 35.8223C185.182 35.3496 185.348 34.666 185.348 33.7715Z" fill="white"/>
</svg>
