<svg width="64" height="64" viewBox="0 0 64 64" fill="none" xmlns="http://www.w3.org/2000/svg">
<path d="M0 10C0 4.47715 4.0934 0 9.14286 0H54.8571C59.9066 0 64 4.47715 64 10V54C64 59.5228 59.9066 64 54.8571 64H9.14286C4.0934 64 0 59.5228 0 54V10Z" fill="url(#paint0_linear)"/>
<path d="M42.9945 41H21.0037L21 39.8578C21 37.5497 21.1833 36.2168 23.9113 35.5862C26.9987 34.873 30.042 34.2368 28.5772 31.5363C24.2395 23.5375 27.3415 19 31.9982 19C36.565 19 39.7458 23.3688 35.4192 31.5382C33.9983 34.2222 36.9335 34.8602 40.085 35.588C42.8167 36.2187 42.9982 37.5533 42.9982 39.8652L42.9945 41ZM51.8147 36.941C49.4497 36.3947 47.2497 35.9162 48.3148 33.9032C51.558 27.7762 49.1747 24.5 45.7482 24.5C43.429 24.5 41.6268 25.9978 41.6268 28.7607C41.6268 35.9162 45.7848 32.0057 45.7445 41H53.9963L54 40.1512C54 38.4168 53.8643 37.414 51.8147 36.941ZM10.0037 41H18.2555C18.217 32.0057 22.3732 35.918 22.3732 28.7607C22.3732 25.9978 20.571 24.5 18.2518 24.5C14.8253 24.5 12.442 27.7762 15.687 33.9032C16.7522 35.918 14.5522 36.3947 12.1872 36.941C10.1357 37.414 10 38.4168 10 40.1512L10.0037 41Z" fill="white"/>
<defs>
<linearGradient id="paint0_linear" x1="32" y1="0" x2="32" y2="64" gradientUnits="userSpaceOnUse">
<stop stop-color="#94F392"/>
<stop offset="1" stop-color="#40D0FF"/>
</linearGradient>
</defs>
</svg>
