<svg width="64" height="64" viewBox="0 0 64 64" fill="none" xmlns="http://www.w3.org/2000/svg">
<path d="M0 10C0 4.47715 4.0934 0 9.14286 0H54.8571C59.9066 0 64 4.47715 64 10V54C64 59.5228 59.9066 64 54.8571 64H9.14286C4.0934 64 0 59.5228 0 54V10Z" fill="url(#paint0_linear)"/>
<path d="M41.1667 32.7671V28.5505C39.0217 27.7824 37.6705 27.5687 36.9867 25.9145C36.3028 24.2566 37.115 23.1292 38.0867 21.0789L35.1203 18.0966C33.0945 19.0637 31.9615 19.8908 30.306 19.2018C28.656 18.5129 28.4415 17.1442 27.6825 15H23.4842C22.7288 17.1332 22.5125 18.5129 20.8607 19.2H20.8588C19.2088 19.8889 18.0905 19.0711 16.0463 18.0947L13.0818 21.0771C14.048 23.1218 14.8657 24.2529 14.1818 25.9126C13.4943 27.5724 12.123 27.7897 10 28.5487V32.7653C12.1175 33.5242 13.4962 33.7434 14.18 35.4013C14.8693 37.0739 14.0315 38.2271 13.08 40.2368L16.0463 43.2192C18.0758 42.2521 19.207 41.425 20.8588 42.1139H20.8607C22.5107 42.8011 22.727 44.1734 23.4842 46.3139H27.6807C28.436 44.1808 28.6523 42.8047 30.3152 42.1103H30.317C31.956 41.425 33.0688 42.2411 35.1185 43.2192L38.0848 40.2368C37.1223 38.1976 36.2992 37.0629 36.983 35.4013C37.6687 33.7453 39.0473 33.5242 41.1667 32.7671ZM25.5833 35.8784C22.716 35.8784 20.3895 33.5408 20.3895 30.6579C20.3895 27.775 22.716 25.4374 25.5833 25.4374C28.4507 25.4374 30.7772 27.775 30.7772 30.6579C30.7772 33.5408 28.4507 35.8784 25.5833 35.8784ZM54 43.6245V41.6405C52.9917 41.2795 52.3555 41.1782 52.0328 40.4008C51.7102 39.6197 52.0933 39.0911 52.5498 38.1239L51.1528 36.7203C50.1995 37.1771 49.666 37.5639 48.8887 37.2416C48.1113 36.9192 48.0105 36.2745 47.653 35.265H45.6803C45.3247 36.2689 45.222 36.9174 44.4447 37.2416C43.6673 37.5658 43.1412 37.1808 42.1805 36.7203L40.7835 38.1239C41.2382 39.0874 41.6232 39.6197 41.3005 40.4008C40.9778 41.1818 40.3325 41.2832 39.3333 41.6405V43.6245C40.3307 43.98 40.9778 44.085 41.3005 44.8642C41.625 45.6508 41.2308 46.1942 40.7835 47.1411L42.1805 48.5447C43.1357 48.0879 43.6692 47.7011 44.4447 48.0234C45.222 48.3458 45.3228 48.9924 45.6803 50H47.653C48.0087 48.9961 48.1113 48.3476 48.8923 48.0216H48.8942C49.666 47.6992 50.1885 48.0842 51.1528 48.5447L52.5498 47.1411C52.097 46.1813 51.7102 45.6453 52.0328 44.8661C52.3555 44.0868 53.0027 43.98 54 43.6245ZM46.6667 45.0871C45.3173 45.0871 44.2228 43.9874 44.2228 42.6316C44.2228 41.2758 45.3173 40.1761 46.6667 40.1761C48.016 40.1761 49.1105 41.2758 49.1105 42.6316C49.1105 43.9874 48.016 45.0871 46.6667 45.0871Z" fill="white"/>
<defs>
<linearGradient id="paint0_linear" x1="32" y1="0" x2="32" y2="64" gradientUnits="userSpaceOnUse">
<stop stop-color="#7CD17A"/>
<stop offset="1" stop-color="#40D0FF"/>
</linearGradient>
</defs>
</svg>
