<svg width="64" height="64" viewBox="0 0 64 64" fill="none" xmlns="http://www.w3.org/2000/svg">
<path d="M0 10C0 4.47715 4.0934 0 9.14286 0H54.8571C59.9066 0 64 4.47715 64 10V54C64 59.5228 59.9066 64 54.8571 64H9.14286C4.0934 64 0 59.5228 0 54V10Z" fill="url(#paint0_linear)"/>
<path d="M46.4173 17.6H26.1957C26.434 16.4084 26.8538 15.0188 27.4662 14H20.9175C20.3272 14.9252 19.8908 16.0826 19.6397 17.6H17.5827L12.6345 37.4H51.3655L46.4173 17.6V17.6ZM20.3327 33.8054H18.0098L18.3747 32L20.6388 32.0054L20.3327 33.8054V33.8054ZM20.7873 31.1252L18.5525 31.118L18.9155 29.3126L21.0935 29.3252L20.7873 31.1252ZM21.2585 28.364L19.1117 28.3496L19.4747 26.5442L21.5647 26.5622L21.2585 28.364ZM24.0177 33.8054H21.6967L21.968 32.0054L24.2322 32.0108L24.0177 33.8054ZM24.3385 31.1378L22.1018 31.1306L22.375 29.3306L24.553 29.3432L24.3385 31.1378ZM24.6667 28.3856L22.5198 28.3712L22.793 26.5712L24.883 26.591L24.6667 28.3856ZM24.9545 21.8642H20.7397C20.3693 19.4234 20.6847 16.6334 21.572 15.0494H25.6952C24.7657 16.898 24.6758 19.994 24.9545 21.8642ZM45.6987 31.2026L43.462 31.1954L43.1833 29.4422L45.3613 29.453L45.6987 31.2026ZM45.1835 28.5188L43.0348 28.5044L42.758 26.7494L44.848 26.7692L45.1835 28.5188ZM28.2417 21.2H43.7077L44.4337 24.8H27.9043L28.2417 21.2ZM33.2448 29.3882L33.2595 31.1648L31.0228 31.1576L31.065 29.3774L33.2448 29.3882V29.3882ZM31.0888 28.427L31.131 26.6468L33.221 26.6648L33.2357 28.4396L31.0888 28.427ZM29.5947 33.8054H27.2737L27.4075 32.018L29.6717 32.0216L29.5947 33.8054ZM29.7083 31.154L27.4717 31.1468L27.6055 29.3594L29.7835 29.3702L29.7083 31.154ZM29.8257 28.418L27.6788 28.4036L27.8127 26.618L29.9027 26.636L29.8257 28.418V28.418ZM30.9605 33.8054L31.0027 32.0252L33.2668 32.0288L33.2815 33.8036H30.9605V33.8054ZM34.3705 26.6756L36.4605 26.6936L36.565 28.463L34.4182 28.4486L34.3705 26.6756V26.6756ZM34.4438 29.3954L36.6218 29.4062L36.7263 31.1738L34.4915 31.1666L34.4438 29.3954V29.3954ZM34.5593 33.8054L34.5135 32.0324L36.7777 32.036L36.8822 33.8036H34.5593V33.8054ZM39.5185 26.7206L41.6085 26.7404L41.8542 28.4972L39.7073 28.4828L39.5185 26.7206ZM39.8063 29.4224L41.9843 29.4332L42.2318 31.19L39.9952 31.1828L39.8063 29.4224V29.4224ZM40.0868 32.0432L45.86 32.054L46.1955 33.8036H40.2757L40.0868 32.0432ZM10 41V50H54V41H10ZM30.1667 44.6H33.8333V46.4H30.1667V44.6Z" fill="white"/>
<defs>
<linearGradient id="paint0_linear" x1="32" y1="0" x2="32" y2="64" gradientUnits="userSpaceOnUse">
<stop stop-color="#FF8181"/>
<stop offset="1" stop-color="#FFBE40"/>
</linearGradient>
</defs>
</svg>
