<svg width="64" height="64" viewBox="0 0 64 64" fill="none" xmlns="http://www.w3.org/2000/svg">
<path d="M0 10C0 4.47715 4.0934 0 9.14286 0H54.8571C59.9066 0 64 4.47715 64 10V54C64 59.5228 59.9066 64 54.8571 64H9.14286C4.0934 64 0 59.5228 0 54V10Z" fill="url(#paint0_linear)"/>
<path d="M32.3007 23.1358C30.1923 23.486 29.1803 25.3963 30.0438 27.4038C30.9568 29.5213 33.5657 30.878 35.7162 30.3427C37.621 29.8715 38.501 28.0473 37.676 26.1352C36.8125 24.1277 34.4053 22.7857 32.3007 23.1358ZM35.0213 28.6322L35.212 29.052L34.8105 29.1345L34.6327 28.733C34.2183 28.8082 33.749 28.7972 33.3145 28.6835L33.1953 27.974C33.5528 28.029 33.9983 28.0803 34.3375 28.0107L34.5667 27.9355C34.9718 27.7357 34.8453 27.226 34.244 27.105C33.7948 27.006 32.6068 27.0793 32.1632 26.093C31.9138 25.5357 32.099 24.9545 32.8158 24.6887L32.6178 24.2505L33.0157 24.168L33.2063 24.5878C33.4978 24.5402 33.8388 24.5218 34.2385 24.5567L34.398 25.2588C34.0863 25.2203 33.7508 25.1837 33.4593 25.2442L33.3493 25.2735C32.7828 25.4238 32.9643 25.961 33.4667 26.0912C34.2972 26.2837 35.289 26.346 35.6813 27.2132C35.9985 27.919 35.63 28.4012 35.0213 28.6322ZM53.9267 30.57L47.0223 15.5C35.696 22.8407 23.1762 14.917 14.1122 23.6657L21.0147 38.7357C30.7277 30.5003 43.9662 38.2993 53.9267 30.57ZM48.7878 27.1747C48.1003 28.1298 47.5907 29.2225 47.2863 30.3665C40.6992 32.3722 32.8195 29.998 25.2533 32.6417C24.0305 31.9927 22.4978 31.5857 21.2402 31.6223L19.1593 27.0628C19.9513 26.1003 20.5747 24.6337 20.8423 23.2238C27.0738 20.9762 34.871 23.508 43.2053 20.6553C44.1605 21.2897 45.277 21.7498 46.377 21.9772L48.7878 27.1747ZM54 37.5183C41.4288 44.7435 31.2685 34.9077 18.25 48.5L10 30.2217L12.5703 27.5395L19.5498 42.9505L19.5462 42.9633C33.1953 32.7058 40.0703 40.8073 52.746 34.5978C53.285 35.7858 53.7818 37.0398 54 37.5183Z" fill="white"/>
<defs>
<linearGradient id="paint0_linear" x1="32" y1="0" x2="32" y2="64" gradientUnits="userSpaceOnUse">
<stop stop-color="#FF7952"/>
<stop offset="1" stop-color="#FF40A7"/>
</linearGradient>
</defs>
</svg>
