<svg width="41" height="57" viewBox="0 0 41 57" fill="none" xmlns="http://www.w3.org/2000/svg">
<path d="M11.3589 47.9419L14.3883 56.3333L23.6167 30.9056L12.8736 26.9915L3.6452 52.391L11.3589 47.9419Z" fill="#146B7F"/>
<path d="M29.984 47.9419L37.6977 52.391L28.4693 26.9915L17.7262 30.9056L26.9546 56.3333L29.984 47.9419Z" fill="#13ADB7"/>
<path d="M20.6714 38.4805C30.4311 38.4805 38.3429 30.5379 38.3429 20.7402C38.3429 10.9426 30.4311 3 20.6714 3C10.9118 3 3 10.9426 3 20.7402C3 30.5379 10.9118 38.4805 20.6714 38.4805Z" fill="#FFCC00" stroke="#FDC00F" stroke-width="5" stroke-miterlimit="10" stroke-linecap="round" stroke-linejoin="round"/>
<path d="M20.6714 4.94296L22.6068 6.66067L24.935 5.5343L26.3375 7.70256L28.89 7.25201L29.6474 9.73001L32.228 9.98344L32.3121 12.5741L34.7244 13.5033L34.0792 16.0376L36.1549 17.5864L34.8927 19.8391L36.4635 21.8947L34.6122 23.7251L35.5659 26.1186L33.3219 27.3858L33.6024 29.9764L31.0779 30.5677L30.6572 33.1302L28.0766 33.0176L26.9826 35.383L24.5142 34.5945L22.8312 36.5375L20.6714 35.1014L18.5116 36.5375L16.8286 34.5945L14.3602 35.383L13.2662 33.0176L10.6856 33.1302L10.2649 30.5677L7.74039 29.9764L8.02089 27.3858L5.7769 26.1186L6.73059 23.7251L4.90735 21.8947L6.45009 19.8391L5.18785 17.5864L7.26354 16.0376L6.61839 13.5033L9.03068 12.5741L9.11483 9.98344L11.6954 9.73001L12.4528 7.25201L15.0053 7.70256L16.4078 5.5343L18.736 6.66067L20.6714 4.94296Z" fill="#FDC00F" stroke="#F9B233" stroke-width="3" stroke-miterlimit="10" stroke-linecap="round" stroke-linejoin="round"/>
<path d="M33.0414 20.7402C33.0414 27.611 27.5156 33.1584 20.6714 33.1584C13.8272 33.1584 8.30139 27.611 8.30139 20.7402C8.30139 13.8694 13.8272 8.32205 20.6714 8.32205C27.5156 8.32205 33.0414 13.8694 33.0414 20.7402Z" fill="#FFD633"/>
<path d="M23 31H19.1641V20.5841L19.2014 18.8728L19.2634 17.0014C18.6262 17.6334 18.1834 18.0479 17.9352 18.2449L15.8497 19.907L14 17.617L19.8469 13H23V31Z" fill="white"/>
</svg>
