<svg width="204" height="204" viewBox="0 0 204 204" fill="none" xmlns="http://www.w3.org/2000/svg">
<circle cx="101.991" cy="101.991" r="101.991" fill="url(#paint0_linear)"/>
<mask id="mask0" mask-type="alpha" maskUnits="userSpaceOnUse" x="0" y="0" width="204" height="204">
<circle cx="101.991" cy="101.991" r="101.991" fill="url(#paint1_linear)"/>
</mask>
<g mask="url(#mask0)">
<path d="M43.1776 64.3619C43.1776 44.5634 59.2274 28.5136 79.0259 28.5136C98.8243 28.5136 114.874 44.5634 114.874 64.3619C114.874 64.3619 111.811 76.6076 114.874 83.369C117.49 89.1429 126.351 94.8462 126.351 94.8462C131.281 99.7756 131.281 107.768 126.351 112.697C121.987 117.062 115.222 117.562 110.307 114.198C104.168 125.135 92.4599 132.524 79.0259 132.524C65.1873 132.524 53.1801 124.683 47.2052 113.201C42.2485 117.621 34.6427 117.453 29.8872 112.697C24.9578 107.768 24.9578 99.7756 29.8872 94.8462C29.8872 94.8462 40.4941 88.3878 43.1776 81.5558C45.6324 75.306 43.1776 64.3619 43.1776 64.3619Z" fill="#C4C4C4"/>
<rect x="69.4327" y="91.1219" width="16.157" height="27.2649" fill="white"/>
<path d="M40.1481 163.323L42.1678 224.417V232.495H114.874C115.716 213.309 114.874 170.594 114.874 159.284C116.894 146.662 122.448 131.009 129.516 128.485C124.316 119.649 110.833 107.729 77.5112 109.299C45.233 110.819 30.05 117.377 26.5157 128.485C37.0177 135.352 39.9798 154.572 40.1481 163.323Z" fill="#ECECEC"/>
<path d="M72.7462 150.865C71.6489 150.865 70.7595 151.754 70.7595 152.851V163.977C70.7595 165.074 71.6489 165.964 72.7462 165.964H75.1303V183.844C75.1303 184.942 76.0197 185.831 77.117 185.831H77.9117C79.009 185.831 79.8984 184.942 79.8984 183.844V165.964H82.2825C83.3798 165.964 84.2692 165.074 84.2692 163.977V152.851C84.2692 151.754 83.3798 150.865 82.2825 150.865H72.7462Z" fill="#2F80ED"/>
<circle cx="77.3157" cy="143.116" r="13.7085" fill="#2D9CDB"/>
<path d="M194.327 93.5212C196.887 93.5212 198.271 90.5212 196.609 88.5739L193.271 84.6621C192.314 83.5403 192.314 81.8892 193.271 80.7674L196.316 77.1987C197.978 75.2513 196.594 72.2513 194.034 72.2513H168.193C166.536 72.2513 165.193 73.5945 165.193 75.2513V90.5212C165.193 92.1781 166.536 93.5212 168.193 93.5212H194.327Z" fill="#2D9CDB"/>
<rect x="163.405" y="64.7039" width="6.17513" height="66.8973" rx="3.08757" fill="#0098CB"/>
<path d="M3.29004 193.618C3.29004 190.79 18.7738 149.018 26.5157 128.485C38.2295 136.16 40.4848 155.245 40.1482 163.828L29.5451 186.549C34.9308 186.212 47.6208 185.337 55.2953 184.529C64.8885 183.52 67.4131 179.985 75.4915 178.471C83.57 176.956 87.6093 178.976 88.6191 189.074C89.6289 199.172 81.0455 200.686 69.9376 199.677C58.8297 198.667 29.5451 208.765 16.4176 209.27C3.29004 209.775 3.29004 197.152 3.29004 193.618Z" fill="white"/>
<path d="M129.516 128.485C121.438 132.12 116.389 150.532 114.874 159.284C122.448 169.887 137.09 196.647 149.713 197.152C159.811 197.556 168.058 155.582 170.919 134.544C173.443 132.019 178.593 124.85 178.997 116.367C179.502 105.764 172.433 104.249 162.335 103.24C152.237 102.23 152.742 114.348 153.247 119.902C153.651 124.345 156.108 128.822 157.286 130.505H155.772L146.178 156.76C142.981 151.374 135.171 138.179 129.516 128.485Z" fill="white"/>
<rect x="56.3051" y="38.6117" width="44.4317" height="63.6181" rx="22.2158" fill="#E2DDDD"/>
<path d="M87.6093 36.3821C80.9241 47.8967 64.9584 70.9257 54.5768 70.9257C41.5997 70.9257 59.2957 29.3563 87.6093 36.3821Z" fill="#C4C4C4" stroke="#C4C4C4"/>
<path d="M77.5112 36.2721C83.2334 46.2019 96.8996 66.0615 105.786 66.0615C116.894 66.0615 101.747 30.2132 77.5112 36.2721Z" fill="#C4C4C4" stroke="#C4C4C4"/>
</g>
<defs>
<linearGradient id="paint0_linear" x1="101.991" y1="0" x2="101.991" y2="203.982" gradientUnits="userSpaceOnUse">
<stop stop-color="#2C7DEB"/>
<stop offset="1" stop-color="#006CFF"/>
</linearGradient>
<linearGradient id="paint1_linear" x1="101.991" y1="0" x2="101.991" y2="203.982" gradientUnits="userSpaceOnUse">
<stop stop-color="#2D7EEB"/>
<stop offset="1" stop-color="#2B7DEA"/>
</linearGradient>
</defs>
</svg>
