<svg width="164" height="38" viewBox="0 0 164 38" fill="none" xmlns="http://www.w3.org/2000/svg">
<path d="M0 0H164V8C164 24.5685 150.569 38 134 38H30C13.4315 38 0 24.5685 0 8V0Z" fill="#9B6A11"/>
<path d="M38.7114 14.6118C38.7114 14.4845 38.7778 14.4071 38.9106 14.3794C38.9992 14.3628 39.0988 14.349 39.2095 14.3379C39.3257 14.3268 39.4391 14.3185 39.5498 14.313C39.6605 14.3019 39.7601 14.2936 39.8486 14.2881C39.9427 14.2826 40.0119 14.2798 40.0562 14.2798C40.189 14.2798 40.2554 14.349 40.2554 14.4873V23.7759C40.2554 23.9087 40.189 23.9862 40.0562 24.0083C39.9621 24.0249 39.8569 24.0387 39.7407 24.0498C39.63 24.0664 39.5194 24.0775 39.4087 24.083C39.3035 24.0941 39.2039 24.0996 39.1099 24.0996C39.0213 24.1051 38.9549 24.1079 38.9106 24.1079C38.7778 24.1079 38.7114 24.0387 38.7114 23.9004V19.1689L33.8721 19.2271V23.7759C33.8721 23.9087 33.8057 23.9862 33.6729 24.0083C33.5788 24.0249 33.4736 24.0387 33.3574 24.0498C33.2467 24.0664 33.1361 24.0775 33.0254 24.083C32.9202 24.0941 32.8206 24.0996 32.7266 24.0996C32.638 24.1051 32.5716 24.1079 32.5273 24.1079C32.3945 24.1079 32.3281 24.0387 32.3281 23.9004V15.6826C32.3281 15.5277 32.3115 15.4032 32.2783 15.3091C32.2507 15.2095 32.2064 15.132 32.1455 15.0767C32.0902 15.0213 32.021 14.9826 31.938 14.9604C31.8605 14.9383 31.772 14.9272 31.6724 14.9272C31.5506 14.9272 31.4289 14.9355 31.3071 14.9521L31.2573 14.4956C31.5562 14.4403 31.8384 14.3932 32.104 14.3545C32.3752 14.3158 32.6131 14.2853 32.8179 14.2632C33.0282 14.241 33.2025 14.2244 33.3408 14.2134C33.4792 14.2023 33.5677 14.1968 33.6064 14.1968C33.7835 14.1968 33.8721 14.2853 33.8721 14.4624V18.4966H38.7114V14.6118Z" fill="white"/>
<path d="M44.0488 20.522L42.7705 23.9668C42.7484 24.0277 42.6986 24.0636 42.6211 24.0747C42.5215 24.0858 42.408 24.0941 42.2808 24.0996C42.1535 24.1051 42.0096 24.1079 41.8491 24.1079C41.7606 24.1079 41.7163 24.0802 41.7163 24.0249C41.7163 24.0083 41.7191 23.9945 41.7246 23.9834L45.5264 14.8691L45.3521 14.3877C45.341 14.3434 45.3354 14.313 45.3354 14.2964C45.3354 14.2134 45.388 14.1636 45.4932 14.147C45.5817 14.1304 45.6841 14.1165 45.8003 14.1055C45.922 14.0889 46.0382 14.075 46.1489 14.064C46.2596 14.0529 46.362 14.0446 46.4561 14.0391C46.5501 14.0335 46.6193 14.0308 46.6636 14.0308C46.7743 14.0308 46.8545 14.0944 46.9043 14.2217L50.6064 23.751C50.623 23.7952 50.6313 23.8257 50.6313 23.8423C50.6313 23.9364 50.576 23.9917 50.4653 24.0083C50.3657 24.0249 50.2523 24.0387 50.125 24.0498C50.0033 24.0664 49.8815 24.0775 49.7598 24.083C49.6436 24.0941 49.5356 24.0996 49.436 24.0996C49.3364 24.1051 49.2645 24.1079 49.2202 24.1079C49.1261 24.1079 49.0625 24.0664 49.0293 23.9834L47.6763 20.4639L44.0488 20.522ZM44.3145 19.8164H47.4272L45.8501 15.6992L44.3145 19.8164Z" fill="white"/>
<path d="M53.9268 22.7134C53.9268 22.8462 53.9295 22.9513 53.9351 23.0288C53.9461 23.1007 53.9683 23.1589 54.0015 23.2031C54.0402 23.2419 54.1011 23.2668 54.1841 23.2778C54.2671 23.2889 54.3833 23.2944 54.5327 23.2944H55.3545C55.7972 23.2944 56.1569 23.2834 56.4336 23.2612C56.7158 23.2391 56.9538 23.1699 57.1475 23.0537C57.3411 22.9375 57.5127 22.7604 57.6621 22.5225C57.8115 22.2845 57.9775 21.9497 58.1602 21.5181L58.5752 21.6094C58.5752 21.6481 58.5614 21.7505 58.5337 21.9165C58.506 22.0825 58.4701 22.2734 58.4258 22.4893C58.387 22.7051 58.3428 22.9264 58.293 23.1533C58.2432 23.3802 58.1934 23.5767 58.1436 23.7427C58.0716 23.9308 57.936 24.0249 57.7368 24.0249C57.3218 24.0194 56.8044 24.0138 56.1846 24.0083C55.5703 24.0028 54.8288 24 53.96 24H52.582C52.5046 24 52.452 23.9779 52.4243 23.9336C52.3966 23.8838 52.3828 23.8368 52.3828 23.7925V15.6826C52.3828 15.5277 52.3662 15.4032 52.333 15.3091C52.3053 15.2095 52.2611 15.132 52.2002 15.0767C52.1449 15.0213 52.0757 14.9826 51.9927 14.9604C51.9152 14.9383 51.8267 14.9272 51.7271 14.9272C51.6053 14.9272 51.4836 14.9355 51.3618 14.9521L51.312 14.4956C51.6108 14.4403 51.8931 14.3932 52.1587 14.3545C52.4299 14.3158 52.6678 14.2853 52.8726 14.2632C53.0828 14.241 53.2572 14.2244 53.3955 14.2134C53.5339 14.2023 53.6224 14.1968 53.6611 14.1968C53.8382 14.1968 53.9268 14.2853 53.9268 14.4624V22.7134Z" fill="white"/>
<path d="M61.5635 22.7134C61.5635 22.8462 61.5662 22.9513 61.5718 23.0288C61.5828 23.1007 61.605 23.1589 61.6382 23.2031C61.6769 23.2419 61.7378 23.2668 61.8208 23.2778C61.9038 23.2889 62.02 23.2944 62.1694 23.2944H62.9912C63.4339 23.2944 63.7936 23.2834 64.0703 23.2612C64.3525 23.2391 64.5905 23.1699 64.7842 23.0537C64.9779 22.9375 65.1494 22.7604 65.2988 22.5225C65.4482 22.2845 65.6143 21.9497 65.7969 21.5181L66.2119 21.6094C66.2119 21.6481 66.1981 21.7505 66.1704 21.9165C66.1427 22.0825 66.1068 22.2734 66.0625 22.4893C66.0238 22.7051 65.9795 22.9264 65.9297 23.1533C65.8799 23.3802 65.8301 23.5767 65.7803 23.7427C65.7083 23.9308 65.5728 24.0249 65.3735 24.0249C64.9585 24.0194 64.4411 24.0138 63.8213 24.0083C63.207 24.0028 62.4655 24 61.5967 24H60.2188C60.1413 24 60.0887 23.9779 60.061 23.9336C60.0334 23.8838 60.0195 23.8368 60.0195 23.7925V15.6826C60.0195 15.5277 60.0029 15.4032 59.9697 15.3091C59.9421 15.2095 59.8978 15.132 59.8369 15.0767C59.7816 15.0213 59.7124 14.9826 59.6294 14.9604C59.5519 14.9383 59.4634 14.9272 59.3638 14.9272C59.242 14.9272 59.1203 14.9355 58.9985 14.9521L58.9487 14.4956C59.2476 14.4403 59.5298 14.3932 59.7954 14.3545C60.0666 14.3158 60.3045 14.2853 60.5093 14.2632C60.7196 14.241 60.8939 14.2244 61.0322 14.2134C61.1706 14.2023 61.2591 14.1968 61.2979 14.1968C61.4749 14.1968 61.5635 14.2853 61.5635 14.4624V22.7134Z" fill="white"/>
<path d="M76.1729 14.1304C76.8867 14.1304 77.5314 14.241 78.1069 14.4624C78.6825 14.6838 79.1722 15.0047 79.5762 15.4253C79.9857 15.8403 80.3011 16.3522 80.5225 16.9609C80.7438 17.5697 80.8545 18.2586 80.8545 19.0278C80.8545 19.869 80.73 20.6133 80.481 21.2607C80.2375 21.9082 79.8888 22.4533 79.4351 22.896C78.9813 23.3332 78.4334 23.668 77.7915 23.9004C77.1551 24.1273 76.444 24.2407 75.6582 24.2407C74.9443 24.2407 74.2969 24.1273 73.7158 23.9004C73.1403 23.668 72.6478 23.3387 72.2383 22.9126C71.8343 22.4865 71.5216 21.9663 71.3003 21.3521C71.0845 20.7378 70.9766 20.0433 70.9766 19.2686C70.9766 18.4329 71.0983 17.6942 71.3418 17.0522C71.5908 16.4103 71.9422 15.8735 72.396 15.4419C72.8498 15.0103 73.3949 14.6838 74.0312 14.4624C74.6732 14.241 75.387 14.1304 76.1729 14.1304ZM75.7578 14.8276C75.2155 14.8276 74.7507 14.9383 74.3633 15.1597C73.9759 15.381 73.6577 15.6771 73.4087 16.0479C73.1652 16.4186 72.9854 16.8447 72.8691 17.3262C72.7529 17.8076 72.6948 18.3084 72.6948 18.8286C72.6948 19.4097 72.7557 19.9824 72.8774 20.5469C73.0047 21.1113 73.2039 21.6149 73.4751 22.0576C73.7463 22.5003 74.0977 22.86 74.5293 23.1367C74.9609 23.4079 75.4811 23.5435 76.0898 23.5435C76.6322 23.5435 77.097 23.43 77.4844 23.2031C77.8717 22.9707 78.1872 22.6663 78.4307 22.29C78.6797 21.9082 78.8623 21.4738 78.9785 20.9868C79.0947 20.4943 79.1528 19.988 79.1528 19.4678C79.1528 18.8867 79.0892 18.3195 78.9619 17.7661C78.8402 17.2072 78.6437 16.7119 78.3726 16.2803C78.1014 15.8431 77.75 15.4917 77.3184 15.2261C76.8867 14.9604 76.3665 14.8276 75.7578 14.8276Z" fill="white"/>
<path d="M84.3906 23.7759C84.3906 23.9087 84.3242 23.9862 84.1914 24.0083C84.0973 24.0249 83.9922 24.0387 83.876 24.0498C83.7653 24.0664 83.6546 24.0775 83.5439 24.083C83.4388 24.0941 83.3392 24.0996 83.2451 24.0996C83.1566 24.1051 83.0902 24.1079 83.0459 24.1079C82.9131 24.1079 82.8467 24.0387 82.8467 23.9004V15.8154C82.8467 15.5332 82.783 15.3478 82.6558 15.2593C82.5285 15.1652 82.3708 15.1182 82.1826 15.1182C82.0664 15.1182 81.9474 15.1265 81.8257 15.1431L81.7759 14.6865C81.8921 14.6644 82.0609 14.6367 82.2822 14.6035C82.5036 14.5703 82.7332 14.5371 82.9712 14.5039C83.2147 14.4707 83.4471 14.443 83.6685 14.4209C83.8953 14.3988 84.0724 14.3877 84.1997 14.3877H87.1548C87.3429 14.3877 87.5394 14.3877 87.7441 14.3877C87.9489 14.3822 88.1758 14.3766 88.4248 14.3711C88.5133 14.3711 88.5632 14.4126 88.5742 14.4956C88.5853 14.5675 88.5936 14.6672 88.5991 14.7944C88.6102 14.9217 88.6185 15.0601 88.624 15.2095C88.6351 15.3589 88.6434 15.5138 88.6489 15.6743C88.6545 15.8293 88.6572 15.9731 88.6572 16.106C88.6628 16.2388 88.6655 16.3522 88.6655 16.4463C88.6711 16.5404 88.6738 16.5985 88.6738 16.6206L88.2588 16.6621C88.1647 16.2692 88.0679 15.9648 87.9683 15.749C87.8742 15.5332 87.7524 15.3755 87.603 15.2759C87.4536 15.1763 87.2627 15.1182 87.0303 15.1016C86.8034 15.0794 86.5073 15.0684 86.1421 15.0684H84.7476C84.6535 15.0684 84.5815 15.0711 84.5317 15.0767C84.4875 15.0822 84.4543 15.096 84.4321 15.1182C84.41 15.1403 84.3962 15.1735 84.3906 15.2178C84.3906 15.2565 84.3906 15.3118 84.3906 15.3838V19.0942C84.8444 19.0721 85.2567 19.0527 85.6274 19.0361C85.9982 19.014 86.3164 18.9974 86.582 18.9863C86.8532 18.9697 87.069 18.9587 87.2295 18.9531C87.3955 18.9421 87.4979 18.9365 87.5366 18.9365C87.6916 18.9365 87.769 19.0195 87.769 19.1855C87.769 19.2907 87.7635 19.3986 87.7524 19.5093C87.7414 19.62 87.7275 19.7389 87.7109 19.8662L84.3906 19.75V23.7759Z" fill="white"/>
<path d="M95.7295 23.7759C95.7295 23.9087 95.6631 23.9862 95.5303 24.0083C95.4362 24.0249 95.3311 24.0387 95.2148 24.0498C95.1042 24.0664 94.9935 24.0775 94.8828 24.083C94.7777 24.0941 94.6781 24.0996 94.584 24.0996C94.4954 24.1051 94.429 24.1079 94.3848 24.1079C94.252 24.1079 94.1855 24.0387 94.1855 23.9004V15.8154C94.1855 15.5332 94.1219 15.3478 93.9946 15.2593C93.8674 15.1652 93.7096 15.1182 93.5215 15.1182C93.4053 15.1182 93.2863 15.1265 93.1646 15.1431L93.1147 14.6865C93.231 14.6644 93.3997 14.6367 93.6211 14.6035C93.8424 14.5703 94.0721 14.5371 94.3101 14.5039C94.5535 14.4707 94.786 14.443 95.0073 14.4209C95.2342 14.3988 95.4113 14.3877 95.5386 14.3877H98.4937C98.6818 14.3877 98.8783 14.3877 99.083 14.3877C99.2878 14.3822 99.5146 14.3766 99.7637 14.3711C99.8522 14.3711 99.902 14.4126 99.9131 14.4956C99.9242 14.5675 99.9325 14.6672 99.938 14.7944C99.9491 14.9217 99.9574 15.0601 99.9629 15.2095C99.974 15.3589 99.9823 15.5138 99.9878 15.6743C99.9933 15.8293 99.9961 15.9731 99.9961 16.106C100.002 16.2388 100.004 16.3522 100.004 16.4463C100.01 16.5404 100.013 16.5985 100.013 16.6206L99.5977 16.6621C99.5036 16.2692 99.4067 15.9648 99.3071 15.749C99.2131 15.5332 99.0913 15.3755 98.9419 15.2759C98.7925 15.1763 98.6016 15.1182 98.3691 15.1016C98.1423 15.0794 97.8462 15.0684 97.481 15.0684H96.0864C95.9924 15.0684 95.9204 15.0711 95.8706 15.0767C95.8263 15.0822 95.7931 15.096 95.771 15.1182C95.7489 15.1403 95.735 15.1735 95.7295 15.2178C95.7295 15.2565 95.7295 15.3118 95.7295 15.3838V19.0942C96.1833 19.0721 96.5955 19.0527 96.9663 19.0361C97.3371 19.014 97.6553 18.9974 97.9209 18.9863C98.1921 18.9697 98.4079 18.9587 98.5684 18.9531C98.7344 18.9421 98.8368 18.9365 98.8755 18.9365C99.0304 18.9365 99.1079 19.0195 99.1079 19.1855C99.1079 19.2907 99.1024 19.3986 99.0913 19.5093C99.0802 19.62 99.0664 19.7389 99.0498 19.8662L95.7295 19.75V23.7759Z" fill="white"/>
<path d="M101.673 20.522L100.395 23.9668C100.372 24.0277 100.323 24.0636 100.245 24.0747C100.146 24.0858 100.032 24.0941 99.9048 24.0996C99.7775 24.1051 99.6336 24.1079 99.4731 24.1079C99.3846 24.1079 99.3403 24.0802 99.3403 24.0249C99.3403 24.0083 99.3431 23.9945 99.3486 23.9834L103.15 14.8691L102.976 14.3877C102.965 14.3434 102.959 14.313 102.959 14.2964C102.959 14.2134 103.012 14.1636 103.117 14.147C103.206 14.1304 103.308 14.1165 103.424 14.1055C103.546 14.0889 103.662 14.075 103.773 14.064C103.884 14.0529 103.986 14.0446 104.08 14.0391C104.174 14.0335 104.243 14.0308 104.288 14.0308C104.398 14.0308 104.479 14.0944 104.528 14.2217L108.23 23.751C108.247 23.7952 108.255 23.8257 108.255 23.8423C108.255 23.9364 108.2 23.9917 108.089 24.0083C107.99 24.0249 107.876 24.0387 107.749 24.0498C107.627 24.0664 107.506 24.0775 107.384 24.083C107.268 24.0941 107.16 24.0996 107.06 24.0996C106.96 24.1051 106.889 24.1079 106.844 24.1079C106.75 24.1079 106.687 24.0664 106.653 23.9834L105.3 20.4639L101.673 20.522ZM101.938 19.8164H105.051L103.474 15.6992L101.938 19.8164Z" fill="white"/>
<path d="M118.191 16.4131L115.095 23.9668C115.073 24.0277 115.023 24.0636 114.946 24.0747C114.846 24.0858 114.733 24.0941 114.605 24.0996C114.484 24.1051 114.359 24.1079 114.232 24.1079C114.143 24.1079 114.083 24.0664 114.049 23.9834L111.144 16.3135L110.189 23.9585C110.178 24.0249 110.129 24.0609 110.04 24.0664C109.94 24.0775 109.816 24.0858 109.667 24.0913C109.523 24.1024 109.37 24.1079 109.21 24.1079C109.132 24.1079 109.094 24.0775 109.094 24.0166C109.094 23.9779 109.097 23.9502 109.102 23.9336L110.721 15.1182L110.455 14.3877C110.444 14.3545 110.438 14.3268 110.438 14.3047C110.438 14.2161 110.494 14.1636 110.604 14.147C110.693 14.1304 110.795 14.1165 110.912 14.1055C111.033 14.0889 111.15 14.075 111.26 14.064C111.376 14.0529 111.482 14.0446 111.576 14.0391C111.67 14.0335 111.739 14.0308 111.783 14.0308C111.844 14.0308 111.891 14.0474 111.924 14.0806C111.958 14.1138 111.988 14.1608 112.016 14.2217L114.987 22.0493L118.034 15.0767L117.951 14.3877C117.945 14.3822 117.942 14.36 117.942 14.3213C117.942 14.2272 117.995 14.1691 118.1 14.147C118.189 14.1304 118.291 14.1165 118.407 14.1055C118.523 14.0889 118.637 14.075 118.748 14.064C118.858 14.0529 118.958 14.0446 119.046 14.0391C119.14 14.0335 119.21 14.0308 119.254 14.0308C119.392 14.0308 119.47 14.0944 119.486 14.2217L120.615 23.7344C120.621 23.7565 120.624 23.7759 120.624 23.7925C120.624 23.8035 120.624 23.8146 120.624 23.8257C120.624 23.9308 120.571 23.9917 120.466 24.0083C120.372 24.0249 120.264 24.0387 120.142 24.0498C120.02 24.0664 119.901 24.0775 119.785 24.083C119.669 24.0941 119.561 24.0996 119.461 24.0996C119.367 24.1051 119.298 24.1079 119.254 24.1079C119.204 24.1079 119.163 24.0968 119.129 24.0747C119.096 24.0581 119.077 24.0277 119.071 23.9834L118.191 16.4131Z" fill="white"/>
<path d="M124.301 22.7134C124.301 22.8462 124.304 22.9513 124.309 23.0288C124.32 23.1007 124.342 23.1589 124.375 23.2031C124.414 23.2419 124.475 23.2668 124.558 23.2778C124.641 23.2889 124.757 23.2944 124.907 23.2944H125.978C126.42 23.2944 126.78 23.2861 127.057 23.2695C127.333 23.2474 127.569 23.1838 127.762 23.0786C127.956 22.9679 128.125 22.7964 128.269 22.564C128.418 22.326 128.584 21.9912 128.767 21.5596L129.182 21.6509C129.182 21.6896 129.168 21.7892 129.14 21.9497C129.118 22.1102 129.088 22.2983 129.049 22.5142C129.01 22.7244 128.966 22.9403 128.916 23.1616C128.866 23.383 128.816 23.5767 128.767 23.7427C128.695 23.9308 128.559 24.0249 128.36 24.0249C128.155 24.0249 127.912 24.0221 127.629 24.0166C127.347 24.0166 127.032 24.0138 126.683 24.0083C126.34 24.0083 125.969 24.0055 125.571 24C125.178 24 124.766 24 124.334 24H122.956C122.879 24 122.826 23.9779 122.798 23.9336C122.771 23.8838 122.757 23.8368 122.757 23.7925V15.8154C122.757 15.5332 122.693 15.3478 122.566 15.2593C122.439 15.1652 122.281 15.1182 122.093 15.1182C121.977 15.1182 121.858 15.1265 121.736 15.1431L121.686 14.6865C121.802 14.6644 121.971 14.6367 122.192 14.6035C122.414 14.5703 122.643 14.5371 122.881 14.5039C123.125 14.4707 123.357 14.443 123.579 14.4209C123.806 14.3988 123.983 14.3877 124.11 14.3877H127.131C127.319 14.3877 127.516 14.3877 127.721 14.3877C127.925 14.3822 128.152 14.3766 128.401 14.3711C128.49 14.3711 128.54 14.4126 128.551 14.4956C128.556 14.5731 128.562 14.6755 128.567 14.8027C128.578 14.93 128.587 15.0684 128.592 15.2178C128.598 15.3672 128.603 15.5194 128.609 15.6743C128.62 15.8293 128.628 15.9731 128.634 16.106C128.639 16.2388 128.642 16.3522 128.642 16.4463C128.648 16.5404 128.65 16.5985 128.65 16.6206L128.235 16.6621C128.141 16.2692 128.044 15.9648 127.945 15.749C127.851 15.5332 127.729 15.3755 127.58 15.2759C127.43 15.1763 127.239 15.1182 127.007 15.1016C126.78 15.0794 126.484 15.0684 126.119 15.0684H124.658C124.564 15.0684 124.492 15.0711 124.442 15.0767C124.398 15.0822 124.364 15.096 124.342 15.1182C124.32 15.1403 124.306 15.1735 124.301 15.2178C124.301 15.2565 124.301 15.3118 124.301 15.3838V18.7456C124.755 18.7235 125.17 18.7041 125.546 18.6875C125.928 18.6654 126.257 18.6488 126.534 18.6377C126.816 18.6211 127.043 18.61 127.214 18.6045C127.386 18.5934 127.491 18.5879 127.53 18.5879C127.685 18.5879 127.762 18.6709 127.762 18.8369C127.762 18.9421 127.757 19.05 127.746 19.1606C127.735 19.2713 127.721 19.3903 127.704 19.5176L124.301 19.4014V22.7134Z" fill="white"/>
</svg>
