<svg width="62" height="62" viewBox="0 0 62 62" fill="none" xmlns="http://www.w3.org/2000/svg">
<path fill-rule="evenodd" clip-rule="evenodd" d="M34.875 54.25C34.162 54.25 33.5833 53.6713 33.5833 52.9583C33.5833 52.2453 34.162 51.6667 34.875 51.6667C35.588 51.6667 36.1667 52.2453 36.1667 52.9583C36.1667 53.6713 35.588 54.25 34.875 54.25ZM34.875 49.0833C32.736 49.0833 31 50.8193 31 52.9583C31 55.0973 32.736 56.8333 34.875 56.8333C37.014 56.8333 38.75 55.0973 38.75 52.9583C38.75 50.8193 37.014 49.0833 34.875 49.0833ZM19.375 54.25C18.662 54.25 18.0833 53.6713 18.0833 52.9583C18.0833 52.2453 18.662 51.6667 19.375 51.6667C20.088 51.6667 20.6667 52.2453 20.6667 52.9583C20.6667 53.6713 20.088 54.25 19.375 54.25ZM19.375 49.0833C17.236 49.0833 15.5 50.8193 15.5 52.9583C15.5 55.0973 17.236 56.8333 19.375 56.8333C21.514 56.8333 23.25 55.0973 23.25 52.9583C23.25 50.8193 21.514 49.0833 19.375 49.0833ZM62 7.75H54.343L44.9345 46.5H10.5219L0 12.9089H50.4318L52.3125 5.16667H62V7.75ZM3.66575 15.4923L12.431 43.9167H42.8988L49.8067 15.4923H3.66575Z" fill="#56CCF2"/>
</svg>
