<svg width="79" height="75" viewBox="0 0 79 75" fill="none" xmlns="http://www.w3.org/2000/svg">
<rect y="11" width="71" height="64" rx="10" fill="#56CCF2"/>
<circle cx="67" cy="12" r="12" fill="#ABEAFF"/>
<path d="M67 5.64706C63.4918 5.64706 60.6471 8.49177 60.6471 12H58.5294L61.2753 14.7459L61.3247 14.8447L64.1765 12H62.0588C62.0588 9.26824 64.2682 7.05883 67 7.05883C69.7318 7.05883 71.9412 9.26824 71.9412 12C71.9412 14.7318 69.7318 16.9412 67 16.9412C65.6376 16.9412 64.4023 16.3835 63.5129 15.4871L62.5106 16.4894C63.6612 17.64 65.2423 18.3529 67 18.3529C70.5082 18.3529 73.3529 15.5082 73.3529 12C73.3529 8.49177 70.5082 5.64706 67 5.64706ZM66.2941 9.17648V12.7059L69.3153 14.4988L69.8235 13.6447L67.3529 12.1765V9.17648H66.2941Z" fill="white"/>
<path d="M50 19.5294V67.2365C49.9999 67.7043 49.9077 68.1676 49.7286 68.5997C49.5495 69.0319 49.287 69.4246 48.9561 69.7553C48.6253 70.086 48.2325 70.3483 47.8002 70.5272C47.368 70.7061 46.9047 70.7982 46.4369 70.798H23.5636C22.6188 70.7982 21.7126 70.423 21.0444 69.7552C20.3761 69.0873 20.0004 68.1813 20 67.2365V19.5294C20.0001 18.5844 20.3757 17.6781 21.0439 17.0099C21.7122 16.3417 22.6186 15.9663 23.5636 15.9663H46.4369C46.9048 15.9663 47.3682 16.0584 47.8005 16.2374C48.2328 16.4165 48.6257 16.6789 48.9565 17.0098C49.2874 17.3407 49.5499 17.7335 49.7289 18.1658C49.908 18.5981 50.0001 19.0615 50 19.5294V19.5294Z" fill="url(#paint0_linear)"/>
<path d="M47.718 18.3567H22.282V62.0412H47.718V18.3567Z" fill="#EFF4FF"/>
<path d="M38.1385 66.3916C38.1385 67.6637 36.7332 68.6947 35.0005 68.6947C33.2679 68.6947 31.8609 67.6637 31.8609 66.3916C31.8609 65.1195 33.2663 64.0885 34.9995 64.0885C36.7326 64.0885 38.1385 65.1195 38.1385 66.3916Z" fill="url(#paint1_linear)"/>
<path d="M24.4921 44.1322H24.3821V58.2032H24.4921V44.1322Z" fill="#4AAFFF"/>
<path d="M29.8269 44.1322H29.717V58.2032H29.8269V44.1322Z" fill="#4AAFFF"/>
<path d="M35.1613 44.1322H35.0513V58.2032H35.1613V44.1322Z" fill="#4AAFFF"/>
<path d="M40.4956 44.1322H40.3856V58.2032H40.4956V44.1322Z" fill="#4AAFFF"/>
<path d="M45.8305 44.1322H45.7205V58.2032H45.8305V44.1322Z" fill="#4AAFFF"/>
<path d="M24.4921 51.5497C24.4921 51.5497 26.6657 53.3802 28.7663 51.2124C30.8669 49.0446 33.2885 48.3202 35.4325 50.1459C37.5765 51.9716 38.4082 49.466 40.5506 47.4124C42.693 45.3588 42.6581 44.1903 45.8299 44.1903V57.2557H24.4921V51.5497Z" fill="url(#paint2_linear)"/>
<path d="M31.0969 42.96H29.7714V43.4723H31.0969V42.96Z" fill="#4AAFFF"/>
<path d="M26.1861 42.96H24.3821V43.4723H26.1861V42.96Z" fill="#4AAFFF"/>
<path d="M36.74 42.96H35.1063V43.4723H36.74V42.96Z" fill="#4AAFFF"/>
<path d="M42.0194 42.96H40.3856V43.4723H42.0194V42.96Z" fill="#4AAFFF"/>
<path d="M45.7755 42.96H44.1417V43.4723H45.7755V42.96Z" fill="#4AAFFF"/>
<path d="M44.8423 33.7078H37.7092V34.6098H44.8423V33.7078Z" fill="url(#paint3_linear)"/>
<path d="M44.257 37.4903H37.7092V38.3923H44.257V37.4903Z" fill="url(#paint4_linear)"/>
<path d="M43.3745 35.5991H37.7092V36.5011H43.3745V35.5991Z" fill="url(#paint5_linear)"/>
<path d="M31.3137 32.4203C31.3137 32.667 31.2405 32.9082 31.1035 33.1133C30.9664 33.3184 30.7716 33.4783 30.5437 33.5727C30.3158 33.6671 30.065 33.6918 29.8231 33.6436C29.5812 33.5955 29.3589 33.4767 29.1845 33.3023C29.01 33.1279 28.8913 32.9056 28.8431 32.6637C28.795 32.4217 28.8197 32.1709 28.9141 31.943C29.0085 31.7151 29.1684 31.5203 29.3735 31.3833C29.5786 31.2462 29.8197 31.1731 30.0664 31.1731C30.3972 31.1731 30.7145 31.3045 30.9484 31.5384C31.1823 31.7723 31.3137 32.0895 31.3137 32.4203V32.4203Z" fill="#4AAFFF"/>
<path d="M32.3167 36.4863V38.8602C31.6063 39.1816 30.8356 39.3478 30.0559 39.3478C29.2762 39.3478 28.5054 39.1816 27.795 38.8602V36.4863C27.795 35.8866 28.0332 35.3116 28.4572 34.8876C28.8812 34.4636 29.4563 34.2254 30.0559 34.2254C30.6555 34.2254 31.2305 34.4636 31.6545 34.8876C32.0785 35.3116 32.3167 35.8866 32.3167 36.4863V36.4863Z" fill="#4AAFFF"/>
<path d="M30.0559 39.4947C29.2548 39.4967 28.4626 39.3258 27.7337 38.9935C26.5648 38.4629 25.6128 37.548 25.0362 36.4011C24.4596 35.2541 24.2932 33.9443 24.5646 32.6896C24.8361 31.435 25.529 30.3111 26.5281 29.505C27.5272 28.6989 28.7722 28.2593 30.0559 28.2593C31.3396 28.2593 32.5846 28.6989 33.5837 29.505C34.5827 30.3111 35.2757 31.435 35.5471 32.6896C35.8185 33.9443 35.6521 35.2541 35.0755 36.4011C34.4989 37.548 33.547 38.4629 32.378 38.9935C31.6491 39.3257 30.857 39.4966 30.0559 39.4947V39.4947ZM30.0559 28.5538C28.6443 28.5538 27.2906 29.1145 26.2925 30.1126C25.2944 31.1107 24.7337 32.4644 24.7337 33.8759C24.7337 35.2875 25.2944 36.6412 26.2925 37.6393C27.2906 38.6374 28.6443 39.1981 30.0559 39.1981C30.8146 39.1995 31.5646 39.0372 32.2548 38.7222C33.3621 38.2194 34.2637 37.3527 34.8099 36.2662C35.356 35.1797 35.5137 33.939 35.2567 32.7504C34.9997 31.5618 34.3436 30.4971 33.3973 29.7333C32.4511 28.9695 31.2719 28.5527 30.0559 28.5522V28.5538Z" fill="url(#paint6_linear)"/>
<path d="M41.2025 31.5014C40.5312 31.5014 39.8749 31.3023 39.3167 30.9293C38.7585 30.5564 38.3234 30.0262 38.0665 29.406C37.8095 28.7857 37.7423 28.1032 37.8733 27.4448C38.0043 26.7863 38.3276 26.1815 38.8023 25.7067C39.277 25.232 39.8818 24.9087 40.5403 24.7778C41.1987 24.6468 41.8812 24.714 42.5015 24.9709C43.1218 25.2278 43.6519 25.6629 44.0249 26.2211C44.3979 26.7793 44.5969 27.4356 44.5969 28.107C44.596 29.0069 44.238 29.8697 43.6016 30.5061C42.9653 31.1425 42.1025 31.5004 41.2025 31.5014V31.5014ZM41.2025 25.3925C40.6656 25.3923 40.1407 25.5513 39.6941 25.8494C39.2476 26.1476 38.8995 26.5715 38.6939 27.0674C38.4883 27.5634 38.4344 28.1093 38.539 28.6359C38.6436 29.1625 38.9021 29.6463 39.2816 30.026C39.6612 30.4058 40.1449 30.6644 40.6715 30.7692C41.1981 30.874 41.7439 30.8204 42.24 30.6149C42.7361 30.4095 43.1601 30.0616 43.4584 29.6152C43.7567 29.1688 43.9159 28.6439 43.9159 28.107C43.9151 27.3875 43.629 26.6977 43.1203 26.1888C42.6117 25.68 41.922 25.3936 41.2025 25.3925V25.3925Z" fill="#FF6559"/>
<path d="M44.257 24.1278C43.9814 24.1278 43.7121 24.0461 43.483 23.893C43.2539 23.74 43.0753 23.5224 42.9699 23.2679C42.8644 23.0133 42.8368 22.7332 42.8905 22.463C42.9442 22.1927 43.0768 21.9445 43.2716 21.7496C43.4664 21.5548 43.7146 21.422 43.9848 21.3682C44.255 21.3144 44.5352 21.3419 44.7897 21.4473C45.0443 21.5527 45.2619 21.7311 45.4151 21.9602C45.5682 22.1892 45.65 22.4585 45.6501 22.7341C45.6499 23.1035 45.503 23.4578 45.2418 23.7191C44.9806 23.9804 44.6264 24.1274 44.257 24.1278ZM44.257 21.6206C44.0366 21.6207 43.8213 21.6861 43.6381 21.8086C43.455 21.9311 43.3123 22.1051 43.2281 22.3088C43.1438 22.5124 43.1219 22.7364 43.165 22.9524C43.208 23.1685 43.3142 23.367 43.4701 23.5227C43.626 23.6784 43.8245 23.7844 44.0407 23.8273C44.2568 23.8702 44.4808 23.848 44.6843 23.7636C44.8878 23.6792 45.0617 23.5363 45.1841 23.3531C45.3064 23.1698 45.3716 22.9544 45.3715 22.7341C45.3711 22.4387 45.2535 22.1555 45.0445 21.9468C44.8356 21.738 44.5523 21.6207 44.257 21.6206V21.6206Z" fill="#FF6559"/>
<path d="M34.9159 21.3414H29.801V22.1572H34.9159V21.3414Z" fill="#4AAFFF"/>
<path d="M34.9159 23.4431H30.5555V24.2589H34.9159V23.4431Z" fill="#4AAFFF"/>
<path d="M34.9154 25.5453H27.9045V26.3611H34.9154V25.5453Z" fill="#4AAFFF"/>
<path d="M47.7915 52.9054V17.8602L22.2164 52.9054H47.7915Z" fill="white"/>
<path d="M22.2164 52.9054L47.7915 17.8602H22.2164V52.9054Z" fill="#F6F6F6"/>
<path d="M25.2941 26.2718L26.7101 28.5289L26.5425 28.521L29.3574 24.7998L29.7561 25.1223L26.7043 28.6521L26.6149 28.7557L26.5367 28.6442L25.0012 26.4669L25.2941 26.2718Z" fill="#FF695B"/>
<path d="M46.2386 25.6648H32.1454V26.5134H46.2386V25.6648Z" fill="#B2B2B2"/>
<path d="M44.7556 27.1431H32.1454V27.9917H44.7556V27.1431Z" fill="#B2B2B2"/>
<path d="M25.2941 33.6623L26.7101 35.9195L26.5425 35.9115L29.3574 32.1903L29.7561 32.5129L26.7043 36.0426L26.6149 36.1457L26.5367 36.0347L25.0012 33.8574L25.2941 33.6623Z" fill="#FF695B"/>
<path d="M46.2386 33.0553H32.1454V33.904H46.2386V33.0553Z" fill="#B2B2B2"/>
<path d="M44.7556 34.5337H32.1454V35.3823H44.7556V34.5337Z" fill="#B2B2B2"/>
<path d="M25.2941 41.0523L26.7101 43.3095L26.5425 43.3021L29.3574 39.5804L29.7561 39.9034L26.7043 43.4332L26.6149 43.5363L26.5367 43.4253L25.0012 41.2474L25.2941 41.0523Z" fill="#FF695B"/>
<path d="M46.2386 40.4459H32.1454V41.2945H46.2386V40.4459Z" fill="#B2B2B2"/>
<path d="M44.7556 41.9242H32.1454V42.7728H44.7556V41.9242Z" fill="#B2B2B2"/>
<path d="M25.2941 46.9651L26.7101 49.2222L26.5425 49.2143L29.3574 45.4931L29.7561 45.8156L26.7043 49.3454L26.6149 49.4485L26.5367 49.3375L25.0012 47.1602L25.2941 46.9651Z" fill="#FF695B"/>
<path d="M46.2386 46.3581H32.1454V47.2067H46.2386V46.3581Z" fill="#B2B2B2"/>
<path d="M44.7556 47.8364H32.1454V48.685H44.7556V47.8364Z" fill="#B2B2B2"/>
<path d="M46.2386 20.7429H23.9279V21.6829H46.2386V20.7429Z" fill="#FF695B"/>
<defs>
<linearGradient id="paint0_linear" x1="35" y1="41.3447" x2="35" y2="59.3796" gradientUnits="userSpaceOnUse">
<stop offset="0.08" stop-color="#C3DFE8"/>
<stop offset="1" stop-color="#B3C4E8"/>
</linearGradient>
<linearGradient id="paint1_linear" x1="33.7765" y1="65.1681" x2="35.8121" y2="67.2037" gradientUnits="userSpaceOnUse">
<stop stop-color="#93A6CC"/>
<stop offset="0.96" stop-color="#6985BD"/>
</linearGradient>
<linearGradient id="paint2_linear" x1="63.4381" y1="56.929" x2="1.94872" y2="43.4343" gradientUnits="userSpaceOnUse">
<stop stop-color="#40D5E6"/>
<stop offset="1" stop-color="#5577FF"/>
</linearGradient>
<linearGradient id="paint3_linear" x1="4008.04" y1="344.08" x2="4970.37" y2="344.08" gradientUnits="userSpaceOnUse">
<stop stop-color="#40D5E6"/>
<stop offset="1" stop-color="#5577FF"/>
</linearGradient>
<linearGradient id="paint4_linear" x1="3682.26" y1="412.383" x2="4493.13" y2="412.383" gradientUnits="userSpaceOnUse">
<stop stop-color="#40D5E6"/>
<stop offset="1" stop-color="#5577FF"/>
</linearGradient>
<linearGradient id="paint5_linear" x1="3191.08" y1="378.227" x2="3798.12" y2="378.227" gradientUnits="userSpaceOnUse">
<stop stop-color="#40D5E6"/>
<stop offset="1" stop-color="#5577FF"/>
</linearGradient>
<linearGradient id="paint6_linear" x1="24.4371" y1="33.8754" x2="35.6741" y2="33.8754" gradientUnits="userSpaceOnUse">
<stop stop-color="#D3DAE0"/>
<stop offset="1" stop-color="white"/>
</linearGradient>
</defs>
</svg>
