<svg width="67" height="69" viewBox="0 0 67 69" fill="none" xmlns="http://www.w3.org/2000/svg">
<path d="M57.1319 0H9.86808C4.41809 0 0 4.54997 0 10.1626V58.8373C0 64.45 4.41809 69 9.86808 69H57.1319C62.5819 69 67 64.45 67 58.8373V10.1626C67 4.54997 62.5819 0 57.1319 0Z" fill="#0992FF"/>
<path fill-rule="evenodd" clip-rule="evenodd" d="M8.78537 44.0047C9.67279 41.4914 12.335 37.0681 14.4027 33.7872C21.9813 21.1113 34.7246 4.03035 36.384 29.2451C38.7978 65.3718 50.0414 28.1849 50.8844 26.6404C51.7275 25.0959 56.209 27.0608 55.9516 28.0844C55.6942 29.108 36.5615 81.484 32.3818 30.4697C31.166 15.637 12.7344 34.0796 28.0335 31.4658C28.3818 31.4018 28.7396 31.4185 29.0809 31.515C29.4221 31.6114 29.7382 31.785 30.006 32.0232C30.2738 32.2613 30.4867 32.558 30.629 32.8917C30.7713 33.2253 30.8396 33.5874 30.8288 33.9517V34.2076C30.7935 34.998 30.4971 35.7523 29.9888 36.3456C29.4804 36.9389 28.7906 37.3357 28.0335 37.4702C16.3107 39.4717 20.5348 40.0292 13.6218 48.0533C11.9712 49.9725 7.81809 45.8782 8.78537 44.0047Z" fill="white"/>
<path fill-rule="evenodd" clip-rule="evenodd" d="M54.7626 24.8218C55.4646 24.8218 56.1509 24.6074 56.7347 24.2057C57.3184 23.804 57.7734 23.2331 58.042 22.5651C58.3107 21.8971 58.381 21.1621 58.244 20.453C58.1071 19.7438 57.769 19.0925 57.2726 18.5812C56.7761 18.07 56.1436 17.7218 55.4551 17.5807C54.7665 17.4397 54.0528 17.5121 53.4042 17.7888C52.7555 18.0655 52.2012 18.534 51.8111 19.1352C51.4211 19.7363 51.2129 20.4431 51.2129 21.1661C51.2244 22.132 51.6021 23.0549 52.2653 23.7379C52.9285 24.421 53.8247 24.8099 54.7626 24.8218V24.8218Z" fill="white"/>
</svg>
