<svg width="83" height="21" viewBox="0 0 83 21" fill="none" xmlns="http://www.w3.org/2000/svg">
<path fill-rule="evenodd" clip-rule="evenodd" d="M0.0822703 16.024C0.588352 14.5955 2.1066 12.0814 3.28577 10.2166C7.6077 3.01176 14.875 -6.6968 15.8214 7.63489C17.1979 28.1688 23.61 7.03232 24.0908 6.15445C24.5716 5.27657 27.1273 6.3934 26.9805 6.97518C26.8337 7.55697 15.9226 37.3268 13.539 8.33095C12.8456 -0.0997557 2.33433 10.3828 11.0592 8.89716C11.2578 8.86074 11.4619 8.87027 11.6565 8.92507C11.8511 8.97987 12.0314 9.07856 12.1841 9.21393C12.3368 9.3493 12.4582 9.51794 12.5394 9.70757C12.6206 9.8972 12.6595 10.103 12.6533 10.3101V10.4555C12.6332 10.9048 12.4642 11.3335 12.1743 11.6708C11.8844 12.008 11.491 12.2335 11.0592 12.31C4.37384 13.4476 6.78279 13.7644 2.84042 18.3252C1.8991 19.4161 -0.469359 17.0889 0.0822703 16.024Z" fill="white"/>
<path fill-rule="evenodd" clip-rule="evenodd" d="M26.3024 4.15562C26.7028 4.15562 27.0942 4.03376 27.4271 3.80544C27.76 3.57713 28.0194 3.25262 28.1726 2.87295C28.3259 2.49328 28.3659 2.07551 28.2878 1.67245C28.2097 1.26939 28.0169 0.899164 27.7338 0.608578C27.4507 0.317991 27.09 0.120098 26.6973 0.0399254C26.3046 -0.0402473 25.8976 0.000900275 25.5277 0.158165C25.1578 0.315429 24.8417 0.581748 24.6192 0.923441C24.3968 1.26514 24.2781 1.66686 24.2781 2.07781C24.2846 2.62679 24.5 3.15138 24.8782 3.53959C25.2565 3.92781 25.7676 4.14888 26.3024 4.15562V4.15562Z" fill="white"/>
<path d="M42.3672 4.58V14.68H39.8718V13.06C39.5607 13.62 39.1143 14.06 38.5327 14.38C37.9512 14.6867 37.2884 14.84 36.5445 14.84C35.6518 14.84 34.8606 14.6267 34.1708 14.2C33.481 13.7733 32.9468 13.1667 32.5681 12.38C32.1894 11.5933 32 10.68 32 9.64C32 8.6 32.1894 7.68 32.5681 6.88C32.9603 6.06667 33.5013 5.44 34.1911 5C34.8809 4.54667 35.6654 4.32 36.5445 4.32C37.2884 4.32 37.9512 4.48 38.5327 4.8C39.1143 5.10667 39.5607 5.54 39.8718 6.1V4.58H42.3672ZM37.2343 12.88C38.0729 12.88 38.7221 12.5933 39.182 12.02C39.6418 11.4467 39.8718 10.64 39.8718 9.6C39.8718 8.53333 39.6418 7.71333 39.182 7.14C38.7221 6.56667 38.0661 6.28 37.214 6.28C36.3755 6.28 35.7195 6.58 35.2461 7.18C34.7862 7.76667 34.5563 8.58667 34.5563 9.64C34.5563 10.68 34.7862 11.48 35.2461 12.04C35.7195 12.6 36.3822 12.88 37.2343 12.88Z" fill="white"/>
<path d="M45.1292 4.58H47.6449V14.68H45.1292V4.58ZM47.7869 0V2.46H44.9669V0H47.7869Z" fill="white"/>
<path d="M56.2621 4.32C57.1413 4.32 57.919 4.54667 58.5952 5C59.285 5.44 59.8193 6.06667 60.198 6.88C60.5902 7.68 60.7863 8.6 60.7863 9.64C60.7863 10.68 60.597 11.5933 60.2183 12.38C59.8396 13.1667 59.3053 13.7733 58.6155 14.2C57.9393 14.6267 57.1548 14.84 56.2621 14.84C55.5182 14.84 54.8555 14.6867 54.2739 14.38C53.6923 14.06 53.246 13.62 52.9349 13.06V19H50.4192V7.44C50.4192 6.37333 50.3651 5.42 50.2569 4.58H52.6306L52.8334 6.32C53.1039 5.69333 53.5435 5.20667 54.1522 4.86C54.7608 4.5 55.4641 4.32 56.2621 4.32ZM55.5723 12.88C56.4244 12.88 57.0804 12.6 57.5403 12.04C58.0001 11.48 58.2301 10.68 58.2301 9.64C58.2301 8.58667 58.0001 7.76667 57.5403 7.18C57.0804 6.58 56.4312 6.28 55.5926 6.28C54.727 6.28 54.0642 6.56667 53.6044 7.14C53.1445 7.71333 52.9146 8.53333 52.9146 9.6C52.9146 10.6533 53.1445 11.4667 53.6044 12.04C54.0642 12.6 54.7202 12.88 55.5723 12.88Z" fill="white"/>
<path d="M67.6461 14.84C66.6046 14.84 65.6849 14.6267 64.8869 14.2C64.1024 13.7733 63.4938 13.1667 63.061 12.38C62.6417 11.58 62.4321 10.6467 62.4321 9.58C62.4321 8.51333 62.6417 7.58667 63.061 6.8C63.4938 6 64.1024 5.38667 64.8869 4.96C65.6849 4.53333 66.6046 4.32 67.6461 4.32C68.674 4.32 69.5802 4.53333 70.3647 4.96C71.1491 5.38667 71.751 6 72.1703 6.8C72.6031 7.58667 72.8195 8.51333 72.8195 9.58C72.8195 10.6467 72.6031 11.58 72.1703 12.38C71.751 13.1667 71.1491 13.7733 70.3647 14.2C69.5802 14.6267 68.674 14.84 67.6461 14.84ZM67.6258 12.88C68.4914 12.88 69.1474 12.6067 69.5937 12.06C70.0536 11.5 70.2835 10.6733 70.2835 9.58C70.2835 8.5 70.0536 7.68 69.5937 7.12C69.1339 6.54667 68.4846 6.26 67.6461 6.26C66.794 6.26 66.138 6.54667 65.6781 7.12C65.2183 7.68 64.9883 8.5 64.9883 9.58C64.9883 10.6733 65.2115 11.5 65.6579 12.06C66.1177 12.6067 66.7737 12.88 67.6258 12.88Z" fill="white"/>
<path d="M78.7598 14.84C76.9068 14.84 75.4326 14.4133 74.337 13.56L75.0471 11.8C76.1426 12.6 77.3937 13 78.8004 13C79.409 13 79.8756 12.9 80.2003 12.7C80.5384 12.5 80.7075 12.22 80.7075 11.86C80.7075 11.5533 80.5925 11.3133 80.3626 11.14C80.1326 10.9533 79.7404 10.7933 79.1858 10.66L77.4817 10.28C75.6152 9.88 74.6819 8.94 74.6819 7.46C74.6819 6.84667 74.8577 6.30667 75.2094 5.84C75.5611 5.36 76.0547 4.98667 76.6904 4.72C77.3261 4.45333 78.0632 4.32 78.9018 4.32C79.6322 4.32 80.3355 4.43333 81.0118 4.66C81.688 4.87333 82.2832 5.18667 82.7971 5.6L82.0465 7.3C81.0185 6.55333 79.9636 6.18 78.8815 6.18C78.2999 6.18 77.8468 6.28667 77.5222 6.5C77.1976 6.71333 77.0353 7.00667 77.0353 7.38C77.0353 7.67333 77.13 7.90667 77.3193 8.08C77.5222 8.25333 77.8604 8.4 78.3337 8.52L80.0785 8.9C81.0929 9.12667 81.8301 9.48 82.2899 9.96C82.7633 10.4267 83 11.04 83 11.8C83 12.7333 82.6213 13.4733 81.8639 14.02C81.1065 14.5667 80.0718 14.84 78.7598 14.84Z" fill="white"/>
</svg>
