<svg width="64" height="64" viewBox="0 0 64 64" fill="none" xmlns="http://www.w3.org/2000/svg">
<rect width="64" height="64" rx="22" fill="url(#paint0_linear)"/>
<path d="M40.1667 32.7671V28.5505C38.0217 27.7824 36.6705 27.5687 35.9867 25.9145C35.3028 24.2566 36.115 23.1292 37.0867 21.0789L34.1203 18.0966C32.0945 19.0637 30.9615 19.8908 29.306 19.2018C27.656 18.5129 27.4415 17.1442 26.6825 15H22.4842C21.7288 17.1332 21.5125 18.5129 19.8607 19.2H19.8588C18.2088 19.8889 17.0905 19.0711 15.0463 18.0947L12.0818 21.0771C13.048 23.1218 13.8657 24.2529 13.1818 25.9126C12.4943 27.5724 11.123 27.7897 9 28.5487V32.7653C11.1175 33.5242 12.4962 33.7434 13.18 35.4013C13.8693 37.0739 13.0315 38.2271 12.08 40.2368L15.0463 43.2192C17.0758 42.2521 18.207 41.425 19.8588 42.1139H19.8607C21.5107 42.8011 21.727 44.1734 22.4842 46.3139H26.6807C27.436 44.1808 27.6523 42.8047 29.3152 42.1103H29.317C30.956 41.425 32.0688 42.2411 34.1185 43.2192L37.0848 40.2368C36.1223 38.1976 35.2992 37.0629 35.983 35.4013C36.6687 33.7453 38.0473 33.5242 40.1667 32.7671ZM24.5833 35.8784C21.716 35.8784 19.3895 33.5408 19.3895 30.6579C19.3895 27.775 21.716 25.4374 24.5833 25.4374C27.4507 25.4374 29.7772 27.775 29.7772 30.6579C29.7772 33.5408 27.4507 35.8784 24.5833 35.8784ZM53 43.6245V41.6405C51.9917 41.2795 51.3555 41.1782 51.0328 40.4008C50.7102 39.6197 51.0933 39.0911 51.5498 38.1239L50.1528 36.7203C49.1995 37.1771 48.666 37.5639 47.8887 37.2416C47.1113 36.9192 47.0105 36.2745 46.653 35.265H44.6803C44.3247 36.2689 44.222 36.9174 43.4447 37.2416C42.6673 37.5658 42.1412 37.1808 41.1805 36.7203L39.7835 38.1239C40.2382 39.0874 40.6232 39.6197 40.3005 40.4008C39.9778 41.1818 39.3325 41.2832 38.3333 41.6405V43.6245C39.3307 43.98 39.9778 44.085 40.3005 44.8642C40.625 45.6508 40.2308 46.1942 39.7835 47.1411L41.1805 48.5447C42.1357 48.0879 42.6692 47.7011 43.4447 48.0234C44.222 48.3458 44.3228 48.9924 44.6803 50H46.653C47.0087 48.9961 47.1113 48.3476 47.8923 48.0216H47.8942C48.666 47.6992 49.1885 48.0842 50.1528 48.5447L51.5498 47.1411C51.097 46.1813 50.7102 45.6453 51.0328 44.8661C51.3555 44.0868 52.0027 43.98 53 43.6245ZM45.6667 45.0871C44.3173 45.0871 43.2228 43.9874 43.2228 42.6316C43.2228 41.2758 44.3173 40.1761 45.6667 40.1761C47.016 40.1761 48.1105 41.2758 48.1105 42.6316C48.1105 43.9874 47.016 45.0871 45.6667 45.0871Z" fill="white"/>
<defs>
<linearGradient id="paint0_linear" x1="32" y1="0" x2="32" y2="64" gradientUnits="userSpaceOnUse">
<stop stop-color="#56CCF2"/>
<stop offset="1" stop-color="#34B6FF"/>
</linearGradient>
</defs>
</svg>
