<svg width="64" height="64" viewBox="0 0 64 64" fill="none" xmlns="http://www.w3.org/2000/svg">
<rect width="64" height="64" rx="22" fill="url(#paint0_linear)"/>
<path d="M45.5897 18.5H25.8276C26.0605 17.3415 26.4708 15.9905 27.0692 15H20.6694C20.0925 15.8995 19.666 17.0248 19.4206 18.5H17.4103L12.5746 37.75H50.4254L45.5897 18.5V18.5ZM20.0978 34.2553H17.8278L18.1843 32.5L20.397 32.5053L20.0978 34.2553V34.2553ZM20.5422 31.6495L18.3581 31.6425L18.7129 29.8872L20.8414 29.8995L20.5422 31.6495ZM21.0026 28.965L18.9046 28.951L19.2593 27.1957L21.3018 27.2133L21.0026 28.965ZM23.6991 34.2553H21.4308L21.696 32.5053L23.9087 32.5105L23.6991 34.2553ZM24.0126 31.6617L21.8268 31.6548L22.0937 29.9048L24.2223 29.917L24.0126 31.6617ZM24.3333 28.986L22.2353 28.972L22.5023 27.222L24.5447 27.2412L24.3333 28.986ZM24.6146 22.6457H20.4956C20.1337 20.2728 20.4418 17.5602 21.309 16.0202H25.3385C24.4301 17.8175 24.3423 20.8275 24.6146 22.6457ZM44.8873 31.7248L42.7015 31.7178L42.4292 30.0133L44.5577 30.0238L44.8873 31.7248ZM44.3839 29.1155L42.284 29.1015L42.0135 27.3953L44.056 27.4145L44.3839 29.1155ZM27.8271 22H42.9416L43.6511 25.5H27.4974L27.8271 22ZM32.7165 29.9607L32.7309 31.688L30.545 31.681L30.5862 29.9503L32.7165 29.9607V29.9607ZM30.6095 29.0263L30.6507 27.2955L32.6933 27.313L32.7076 29.0385L30.6095 29.0263ZM29.1493 34.2553H26.8811L27.0119 32.5175L29.2246 32.521L29.1493 34.2553ZM29.2604 31.6775L27.0746 31.6705L27.2054 29.9327L29.3339 29.9432L29.2604 31.6775ZM29.3751 29.0175L27.277 29.0035L27.4078 27.2675L29.4503 27.285L29.3751 29.0175V29.0175ZM30.4841 34.2553L30.5253 32.5245L32.738 32.528L32.7524 34.2535H30.4841V34.2553ZM33.8166 27.3235L35.8591 27.341L35.9612 29.0612L33.8632 29.0473L33.8166 27.3235V27.3235ZM33.8883 29.9678L36.0168 29.9783L36.1189 31.6968L33.9349 31.6897L33.8883 29.9678V29.9678ZM34.0012 34.2553L33.9564 32.5315L36.1691 32.535L36.2712 34.2535H34.0012V34.2553ZM38.8476 27.3673L40.8901 27.3865L41.1302 29.0945L39.0322 29.0805L38.8476 27.3673ZM39.1289 29.994L41.2574 30.0045L41.4993 31.7125L39.3135 31.7055L39.1289 29.994V29.994ZM39.403 32.542L45.045 32.5525L45.3729 34.2535H39.5876L39.403 32.542ZM10 41.25V50H53V41.25H10ZM29.7083 44.75H33.2917V46.5H29.7083V44.75Z" fill="white"/>
<defs>
<linearGradient id="paint0_linear" x1="32" y1="0" x2="32" y2="64" gradientUnits="userSpaceOnUse">
<stop stop-color="#56CCF2"/>
<stop offset="1" stop-color="#34B6FF"/>
</linearGradient>
</defs>
</svg>
