<svg width="64" height="64" viewBox="0 0 64 64" fill="none" xmlns="http://www.w3.org/2000/svg">
<rect width="64" height="64" rx="22" fill="url(#paint0_linear)"/>
<path d="M32.4833 23.0408C30.2631 23.4095 29.1975 25.4211 30.1068 27.5351C31.0682 29.7649 33.8154 31.1935 36.0799 30.6298C38.0857 30.1336 39.0124 28.2127 38.1437 26.1992C37.2344 24.0852 34.6996 22.672 32.4833 23.0408ZM35.3482 28.8286L35.549 29.2707L35.1262 29.3575L34.9389 28.9348C34.5026 29.0139 34.0084 29.0023 33.5509 28.8826L33.4254 28.1355C33.8018 28.1934 34.271 28.2475 34.6281 28.1741L34.8694 28.095C35.2961 27.8845 35.1629 27.3478 34.5297 27.2204C34.0567 27.1162 32.8057 27.1934 32.3385 26.1547C32.0759 25.5679 32.2709 24.9559 33.0258 24.6759L32.8173 24.2145L33.2362 24.1277L33.437 24.5698C33.7439 24.5196 34.103 24.5003 34.5239 24.5369L34.6918 25.2763C34.3636 25.2358 34.0103 25.1972 33.7034 25.2609L33.5876 25.2918C32.991 25.4501 33.1821 26.0158 33.7111 26.1528C34.5857 26.3555 35.6301 26.4212 36.0432 27.3343C36.3772 28.0776 35.9892 28.5853 35.3482 28.8286ZM55.2561 30.8692L47.9856 15C36.0587 22.7299 22.8749 14.3861 13.3302 23.5987L20.5988 39.4679C30.8269 30.7958 44.7674 39.0084 55.2561 30.8692V30.8692ZM49.8448 27.2938C49.1208 28.2996 48.5841 29.4502 48.2636 30.6549C41.3272 32.7669 33.0296 30.2668 25.0622 33.0507C23.7745 32.3673 22.1606 31.9387 20.8362 31.9773L18.6451 27.176C19.4791 26.1625 20.1354 24.618 20.4173 23.1334C26.9793 20.7666 35.1899 23.4327 43.9662 20.4287C44.972 21.0967 46.1477 21.5813 47.3061 21.8207L49.8448 27.2938V27.2938ZM55.3333 38.186C42.0955 45.7943 31.3964 35.4369 17.6875 49.75L9 30.5024L11.7066 27.678L19.0563 43.9062L19.0524 43.9197C33.4254 33.1183 40.665 41.6494 54.0128 35.1106C54.5804 36.3616 55.1036 37.6821 55.3333 38.186V38.186Z" fill="white"/>
<defs>
<linearGradient id="paint0_linear" x1="32" y1="0" x2="32" y2="64" gradientUnits="userSpaceOnUse">
<stop stop-color="#56CCF2"/>
<stop offset="1" stop-color="#34B6FF"/>
</linearGradient>
</defs>
</svg>
