<svg width="64" height="64" viewBox="0 0 64 64" fill="none" xmlns="http://www.w3.org/2000/svg">
<rect width="64" height="64" rx="22" fill="url(#paint0_linear)"/>
<path d="M37.68 51H12V14H48.6667V30.285C47.63 29.7872 46.5117 29.4408 45.3333 29.2709V24.0909H15.3333V47.6364H34.1C35.0433 48.9986 36.2667 50.1423 37.68 51ZM41.4417 36.4203C42.1117 36.0739 42.8617 35.8636 43.6667 35.8636C46.0917 35.8636 48.1167 37.6161 48.5683 39.9303L51.835 39.2609C51.075 35.4079 47.71 32.5 43.6667 32.5C42.0717 32.5 40.5917 32.9675 39.3267 33.753L37 30.8182L35.3333 39.2273H43.6667L41.4417 36.4203ZM50.3333 51L48.0067 48.0652C46.7417 48.8506 45.2617 49.3182 43.6667 49.3182C39.6233 49.3182 36.2583 46.4103 35.4983 42.5573L38.765 41.8879C39.2167 44.2021 41.2417 45.9545 43.6667 45.9545C44.4717 45.9545 45.2217 45.7443 45.8917 45.3979L43.6667 42.5909H52L50.3333 51Z" fill="white"/>
<defs>
<linearGradient id="paint0_linear" x1="32" y1="0" x2="32" y2="64" gradientUnits="userSpaceOnUse">
<stop stop-color="#56CCF2"/>
<stop offset="1" stop-color="#34B6FF"/>
</linearGradient>
</defs>
</svg>
