<svg width="33" height="43" viewBox="0 0 33 43" fill="none" xmlns="http://www.w3.org/2000/svg">
<path d="M9.26918 36.7064L11.5412 43L18.4625 23.9292L10.4052 20.9937L3.48389 40.0433L9.26918 36.7064Z" fill="#146B7F"/>
<path d="M23.238 36.7064L29.0233 40.0433L22.102 20.9937L14.0446 23.9293L20.9659 43L23.238 36.7064Z" fill="#13ADB7"/>
<path d="M16.2536 29.6103C23.5733 29.6103 29.5072 23.6534 29.5072 16.3052C29.5072 8.95693 23.5733 3 16.2536 3C8.93383 3 3 8.95693 3 16.3052C3 23.6534 8.93383 29.6103 16.2536 29.6103Z" fill="#93A6CC" stroke="#B3C4E8" stroke-width="5" stroke-miterlimit="10" stroke-linecap="round" stroke-linejoin="round"/>
<path d="M16.2536 4.45723L17.7052 5.74551L19.4513 4.90074L20.5031 6.52692L22.4175 6.18901L22.9856 8.04752L24.921 8.23759L24.9841 10.1806L26.7933 10.8775L26.3095 12.7782L27.8662 13.9398L26.9196 15.6294L28.0976 17.1711L26.7092 18.5438L27.4244 20.339L25.7415 21.2893L25.9518 23.2323L24.0585 23.6758L23.7429 25.5977L21.8075 25.5132L20.987 27.2872L19.1357 26.6959L17.8735 28.1531L16.2536 27.076L14.6337 28.1531L13.3714 26.6959L11.5202 27.2872L10.6997 25.5132L8.76425 25.5977L8.44869 23.6758L6.55532 23.2323L6.7657 21.2893L5.0827 20.339L5.79797 18.5438L4.43054 17.1711L5.5876 15.6294L4.64092 13.9398L6.19769 12.7782L5.71382 10.8775L7.52304 10.1806L7.58616 8.23759L9.5216 8.04752L10.0896 6.18901L12.004 6.52692L13.0559 4.90074L14.802 5.74551L16.2536 4.45723Z" fill="#C3DFE8" stroke="#EFF4FF" stroke-width="3" stroke-miterlimit="10" stroke-linecap="round" stroke-linejoin="round"/>
<path d="M25.5311 16.3052C25.5311 21.4583 21.3867 25.6188 16.2536 25.6188C11.1204 25.6188 6.97607 21.4583 6.97607 16.3052C6.97607 11.1521 11.1204 6.99155 16.2536 6.99155C21.3867 6.99155 25.5311 11.1521 25.5311 16.3052Z" fill="#D3DAE0"/>
<path d="M20.625 22H12.6406V20.3203L15.5078 17.4219C16.3568 16.5521 16.9115 15.9505 17.1719 15.6172C17.4323 15.2786 17.6198 14.9661 17.7344 14.6797C17.849 14.3932 17.9062 14.0964 17.9062 13.7891C17.9062 13.3307 17.7786 12.9896 17.5234 12.7656C17.2734 12.5417 16.9375 12.4297 16.5156 12.4297C16.0729 12.4297 15.6432 12.5312 15.2266 12.7344C14.8099 12.9375 14.375 13.2266 13.9219 13.6016L12.6094 12.0469C13.1719 11.5677 13.638 11.2292 14.0078 11.0312C14.3776 10.8333 14.7812 10.6823 15.2188 10.5781C15.6562 10.4688 16.1458 10.4141 16.6875 10.4141C17.401 10.4141 18.0312 10.5443 18.5781 10.8047C19.125 11.0651 19.5495 11.4297 19.8516 11.8984C20.1536 12.3672 20.3047 12.9036 20.3047 13.5078C20.3047 14.0339 20.2109 14.5286 20.0234 14.9922C19.8411 15.4505 19.5547 15.9219 19.1641 16.4062C18.7786 16.8906 18.0964 17.5807 17.1172 18.4766L15.6484 19.8594V19.9688H20.625V22Z" fill="white"/>
</svg>
