<svg width="76" height="76" viewBox="0 0 76 76" fill="none" xmlns="http://www.w3.org/2000/svg">
<path d="M64.38 0H11.12C4.97859 0 0 4.97859 0 11.12V64.38C0 70.5214 4.97859 75.5 11.12 75.5H64.38C70.5214 75.5 75.5 70.5214 75.5 64.38V11.12C75.5 4.97859 70.5214 0 64.38 0Z" fill="#00AEEF"/>
<path fill-rule="evenodd" clip-rule="evenodd" d="M9.89999 48.15C10.9 45.4 13.9 40.56 16.23 36.97C24.77 23.1 39.13 4.41 41 32C43.72 71.53 56.39 30.84 57.34 29.15C58.29 27.46 63.34 29.61 63.05 30.73C62.76 31.85 41.2 89.16 36.49 33.34C35.12 17.11 14.35 37.29 31.59 34.43C31.9825 34.3599 32.3858 34.3782 32.7703 34.4837C33.1548 34.5892 33.511 34.7792 33.8128 35.0398C34.1146 35.3004 34.3544 35.6251 34.5148 35.9901C34.6752 36.3552 34.7522 36.7514 34.74 37.15V37.43C34.7002 38.2949 34.3662 39.1203 33.7934 39.7695C33.2206 40.4187 32.4432 40.8528 31.59 41C18.38 43.19 23.14 43.8 15.35 52.58C13.49 54.68 8.80999 50.2 9.89999 48.15Z" fill="white"/>
<path fill-rule="evenodd" clip-rule="evenodd" d="M61.71 27.16C62.5011 27.16 63.2745 26.9254 63.9323 26.4859C64.5901 26.0464 65.1028 25.4216 65.4055 24.6907C65.7083 23.9598 65.7875 23.1556 65.6331 22.3796C65.4788 21.6037 65.0978 20.891 64.5384 20.3316C63.979 19.7722 63.2663 19.3912 62.4904 19.2369C61.7144 19.0825 60.9102 19.1617 60.1793 19.4645C59.4484 19.7672 58.8236 20.2799 58.3841 20.9377C57.9446 21.5955 57.71 22.3689 57.71 23.16C57.723 24.2168 58.1486 25.2267 58.8959 25.9741C59.6433 26.7214 60.6532 27.147 61.71 27.16V27.16Z" fill="white"/>
</svg>
